%TF.GenerationSoftware,KiCad,Pcbnew,(5.1.6)-1*%
%TF.CreationDate,2020-09-24T16:41:58+05:30*%
%TF.ProjectId,555_Badge,3535355f-4261-4646-9765-2e6b69636164,v01*%
%TF.SameCoordinates,Original*%
%TF.FileFunction,Soldermask,Bot*%
%TF.FilePolarity,Negative*%
%FSLAX46Y46*%
G04 Gerber Fmt 4.6, Leading zero omitted, Abs format (unit mm)*
G04 Created by KiCad (PCBNEW (5.1.6)-1) date 2020-09-24 16:41:58*
%MOMM*%
%LPD*%
G01*
G04 APERTURE LIST*
%ADD10C,2.601600*%
%ADD11R,2.271600X2.271600*%
%ADD12C,1.701600*%
%ADD13R,1.701600X1.701600*%
%ADD14C,1.901600*%
%ADD15R,1.901600X1.901600*%
%ADD16O,1.601600X1.101600*%
%ADD17R,1.601600X1.101600*%
%ADD18O,1.701600X1.701600*%
%ADD19R,2.001600X2.001600*%
%ADD20C,2.001600*%
%ADD21C,1.625600*%
G04 APERTURE END LIST*
D10*
%TO.C,BAT1*%
X138811000Y-100650000D03*
D11*
X138811000Y-120650000D03*
%TD*%
D12*
%TO.C,C1*%
X166751000Y-122650000D03*
D13*
X166751000Y-120650000D03*
%TD*%
D12*
%TO.C,C2*%
X176911000Y-123150000D03*
D13*
X176911000Y-120650000D03*
%TD*%
D14*
%TO.C,D1*%
X147574000Y-72390000D03*
D15*
X147574000Y-74930000D03*
%TD*%
D14*
%TO.C,D2*%
X160274000Y-72390000D03*
D15*
X160274000Y-74930000D03*
%TD*%
D16*
%TO.C,Q1*%
X166751000Y-114300000D03*
X166751000Y-113030000D03*
D17*
X166751000Y-115570000D03*
%TD*%
D12*
%TO.C,R1*%
X159131000Y-101600000D03*
D18*
X159131000Y-109220000D03*
%TD*%
D12*
%TO.C,R2*%
X162941000Y-109220000D03*
D18*
X162941000Y-101600000D03*
%TD*%
D12*
%TO.C,R3*%
X174371000Y-109220000D03*
D18*
X174371000Y-101600000D03*
%TD*%
%TO.C,R4*%
X178181000Y-109220000D03*
D12*
X178181000Y-101600000D03*
%TD*%
%TO.C,R5*%
X171831000Y-114300000D03*
D18*
X179451000Y-114300000D03*
%TD*%
%TO.C,R6*%
X166624000Y-101600000D03*
D12*
X166624000Y-109220000D03*
%TD*%
%TO.C,R7*%
X170434000Y-109220000D03*
D18*
X170434000Y-101600000D03*
%TD*%
D19*
%TO.C,S1*%
X154051000Y-107950000D03*
D20*
X154051000Y-105450000D03*
X154051000Y-102950000D03*
%TD*%
D21*
%TO.C,U1*%
X152781000Y-115570000D03*
X155321000Y-115570000D03*
X157861000Y-115570000D03*
X160401000Y-115570000D03*
X160401000Y-123190000D03*
X157861000Y-123190000D03*
X155321000Y-123190000D03*
X152781000Y-123190000D03*
%TD*%
M02*
