M48
; DRILL file {KiCad (5.1.6)-1} date 09/24/20 16:44:15
; FORMAT={-:-/ absolute / inch / decimal}
; #@! TF.CreationDate,2020-09-24T16:44:15+05:30
; #@! TF.GenerationSoftware,Kicad,Pcbnew,(5.1.6)-1
; #@! TF.FileFunction,Plated,1,2,PTH
FMAT,2
INCH
T1C0.0150
T2C0.0217
T3C0.0300
T4C0.0315
T5C0.0354
T6C0.0461
T7C0.0591
%
G90
G05
T1
X6.64Y-4.28
T2
X6.565Y-4.45
X6.565Y-4.5
X6.565Y-4.55
T3
X6.015Y-4.55
X6.015Y-4.85
X6.115Y-4.55
X6.115Y-4.85
X6.215Y-4.55
X6.215Y-4.85
X6.315Y-4.55
X6.315Y-4.85
T4
X6.56Y-4.0
X6.56Y-4.3
X7.015Y-4.0
X7.015Y-4.3
X6.565Y-4.75
X6.565Y-4.8287
X6.265Y-4.0
X6.265Y-4.3
X6.765Y-4.5
X7.065Y-4.5
X6.415Y-4.0
X6.415Y-4.3
X6.865Y-4.0
X6.865Y-4.3
X6.71Y-4.0
X6.71Y-4.3
X6.965Y-4.75
X6.965Y-4.8484
T5
X6.065Y-4.0531
X6.065Y-4.1516
X6.065Y-4.25
X6.31Y-2.85
X6.31Y-2.95
X5.81Y-2.85
X5.81Y-2.95
T6
X5.465Y-4.75
T7
X5.465Y-3.9626
T0
M30
