%TF.GenerationSoftware,KiCad,Pcbnew,(5.1.6)-1*%
%TF.CreationDate,2020-09-24T16:41:58+05:30*%
%TF.ProjectId,555_Badge,3535355f-4261-4646-9765-2e6b69636164,v01*%
%TF.SameCoordinates,Original*%
%TF.FileFunction,Legend,Bot*%
%TF.FilePolarity,Positive*%
%FSLAX46Y46*%
G04 Gerber Fmt 4.6, Leading zero omitted, Abs format (unit mm)*
G04 Created by KiCad (PCBNEW (5.1.6)-1) date 2020-09-24 16:41:58*
%MOMM*%
%LPD*%
G01*
G04 APERTURE LIST*
%ADD10C,0.508000*%
G04 APERTURE END LIST*
D10*
X162511619Y-58299047D02*
X163721142Y-58299047D01*
X163842095Y-59508571D01*
X163721142Y-59387619D01*
X163479238Y-59266666D01*
X162874476Y-59266666D01*
X162632571Y-59387619D01*
X162511619Y-59508571D01*
X162390666Y-59750476D01*
X162390666Y-60355238D01*
X162511619Y-60597142D01*
X162632571Y-60718095D01*
X162874476Y-60839047D01*
X163479238Y-60839047D01*
X163721142Y-60718095D01*
X163842095Y-60597142D01*
X160092571Y-58299047D02*
X161302095Y-58299047D01*
X161423047Y-59508571D01*
X161302095Y-59387619D01*
X161060190Y-59266666D01*
X160455428Y-59266666D01*
X160213523Y-59387619D01*
X160092571Y-59508571D01*
X159971619Y-59750476D01*
X159971619Y-60355238D01*
X160092571Y-60597142D01*
X160213523Y-60718095D01*
X160455428Y-60839047D01*
X161060190Y-60839047D01*
X161302095Y-60718095D01*
X161423047Y-60597142D01*
X157673523Y-58299047D02*
X158883047Y-58299047D01*
X159004000Y-59508571D01*
X158883047Y-59387619D01*
X158641142Y-59266666D01*
X158036380Y-59266666D01*
X157794476Y-59387619D01*
X157673523Y-59508571D01*
X157552571Y-59750476D01*
X157552571Y-60355238D01*
X157673523Y-60597142D01*
X157794476Y-60718095D01*
X158036380Y-60839047D01*
X158641142Y-60839047D01*
X158883047Y-60718095D01*
X159004000Y-60597142D01*
X153682095Y-59508571D02*
X153319238Y-59629523D01*
X153198285Y-59750476D01*
X153077333Y-59992380D01*
X153077333Y-60355238D01*
X153198285Y-60597142D01*
X153319238Y-60718095D01*
X153561142Y-60839047D01*
X154528761Y-60839047D01*
X154528761Y-58299047D01*
X153682095Y-58299047D01*
X153440190Y-58420000D01*
X153319238Y-58540952D01*
X153198285Y-58782857D01*
X153198285Y-59024761D01*
X153319238Y-59266666D01*
X153440190Y-59387619D01*
X153682095Y-59508571D01*
X154528761Y-59508571D01*
X150900190Y-60839047D02*
X150900190Y-59508571D01*
X151021142Y-59266666D01*
X151263047Y-59145714D01*
X151746857Y-59145714D01*
X151988761Y-59266666D01*
X150900190Y-60718095D02*
X151142095Y-60839047D01*
X151746857Y-60839047D01*
X151988761Y-60718095D01*
X152109714Y-60476190D01*
X152109714Y-60234285D01*
X151988761Y-59992380D01*
X151746857Y-59871428D01*
X151142095Y-59871428D01*
X150900190Y-59750476D01*
X148602095Y-60839047D02*
X148602095Y-58299047D01*
X148602095Y-60718095D02*
X148844000Y-60839047D01*
X149327809Y-60839047D01*
X149569714Y-60718095D01*
X149690666Y-60597142D01*
X149811619Y-60355238D01*
X149811619Y-59629523D01*
X149690666Y-59387619D01*
X149569714Y-59266666D01*
X149327809Y-59145714D01*
X148844000Y-59145714D01*
X148602095Y-59266666D01*
X146304000Y-59145714D02*
X146304000Y-61201904D01*
X146424952Y-61443809D01*
X146545904Y-61564761D01*
X146787809Y-61685714D01*
X147150666Y-61685714D01*
X147392571Y-61564761D01*
X146304000Y-60718095D02*
X146545904Y-60839047D01*
X147029714Y-60839047D01*
X147271619Y-60718095D01*
X147392571Y-60597142D01*
X147513523Y-60355238D01*
X147513523Y-59629523D01*
X147392571Y-59387619D01*
X147271619Y-59266666D01*
X147029714Y-59145714D01*
X146545904Y-59145714D01*
X146304000Y-59266666D01*
X144126857Y-60718095D02*
X144368761Y-60839047D01*
X144852571Y-60839047D01*
X145094476Y-60718095D01*
X145215428Y-60476190D01*
X145215428Y-59508571D01*
X145094476Y-59266666D01*
X144852571Y-59145714D01*
X144368761Y-59145714D01*
X144126857Y-59266666D01*
X144005904Y-59508571D01*
X144005904Y-59750476D01*
X145215428Y-59992380D01*
M02*
