%TF.GenerationSoftware,KiCad,Pcbnew,(5.1.6)-1*%
%TF.CreationDate,2020-09-24T16:41:58+05:30*%
%TF.ProjectId,555_Badge,3535355f-4261-4646-9765-2e6b69636164,v01*%
%TF.SameCoordinates,Original*%
%TF.FileFunction,Copper,L1,Top*%
%TF.FilePolarity,Positive*%
%FSLAX46Y46*%
G04 Gerber Fmt 4.6, Leading zero omitted, Abs format (unit mm)*
G04 Created by KiCad (PCBNEW (5.1.6)-1) date 2020-09-24 16:41:58*
%MOMM*%
%LPD*%
G01*
G04 APERTURE LIST*
%TA.AperFunction,ComponentPad*%
%ADD10C,2.500000*%
%TD*%
%TA.AperFunction,ComponentPad*%
%ADD11R,2.170000X2.170000*%
%TD*%
%TA.AperFunction,ComponentPad*%
%ADD12C,1.600000*%
%TD*%
%TA.AperFunction,ComponentPad*%
%ADD13R,1.600000X1.600000*%
%TD*%
%TA.AperFunction,ComponentPad*%
%ADD14C,1.800000*%
%TD*%
%TA.AperFunction,ComponentPad*%
%ADD15R,1.800000X1.800000*%
%TD*%
%TA.AperFunction,ComponentPad*%
%ADD16O,1.500000X1.000000*%
%TD*%
%TA.AperFunction,ComponentPad*%
%ADD17R,1.500000X1.000000*%
%TD*%
%TA.AperFunction,ComponentPad*%
%ADD18O,1.600000X1.600000*%
%TD*%
%TA.AperFunction,ComponentPad*%
%ADD19R,1.900000X1.900000*%
%TD*%
%TA.AperFunction,ComponentPad*%
%ADD20C,1.900000*%
%TD*%
%TA.AperFunction,ComponentPad*%
%ADD21C,1.524000*%
%TD*%
%TA.AperFunction,ViaPad*%
%ADD22C,0.762000*%
%TD*%
%TA.AperFunction,Conductor*%
%ADD23C,0.762000*%
%TD*%
%TA.AperFunction,Conductor*%
%ADD24C,0.254000*%
%TD*%
G04 APERTURE END LIST*
D10*
%TO.P,BAT1,Pos*%
%TO.N,Net-(BAT1-PadPos)*%
X138811000Y-100650000D03*
D11*
%TO.P,BAT1,Neg*%
%TO.N,GND*%
X138811000Y-120650000D03*
%TD*%
D12*
%TO.P,C1,2*%
%TO.N,GND*%
X166751000Y-122650000D03*
D13*
%TO.P,C1,1*%
%TO.N,Net-(C1-Pad1)*%
X166751000Y-120650000D03*
%TD*%
D12*
%TO.P,C2,2*%
%TO.N,GND*%
X176911000Y-123150000D03*
D13*
%TO.P,C2,1*%
%TO.N,Net-(C2-Pad1)*%
X176911000Y-120650000D03*
%TD*%
D14*
%TO.P,D1,2*%
%TO.N,Net-(D1-Pad2)*%
X147574000Y-72390000D03*
D15*
%TO.P,D1,1*%
%TO.N,Net-(D1-Pad1)*%
X147574000Y-74930000D03*
%TD*%
D14*
%TO.P,D2,2*%
%TO.N,Net-(D2-Pad2)*%
X160274000Y-72390000D03*
D15*
%TO.P,D2,1*%
%TO.N,Net-(D1-Pad1)*%
X160274000Y-74930000D03*
%TD*%
D16*
%TO.P,Q1,2*%
%TO.N,Net-(Q1-Pad2)*%
X166751000Y-114300000D03*
%TO.P,Q1,3*%
%TO.N,Net-(D1-Pad1)*%
X166751000Y-113030000D03*
D17*
%TO.P,Q1,1*%
%TO.N,GND*%
X166751000Y-115570000D03*
%TD*%
D12*
%TO.P,R1,1*%
%TO.N,VCC*%
X159131000Y-101600000D03*
D18*
%TO.P,R1,2*%
%TO.N,Net-(R1-Pad2)*%
X159131000Y-109220000D03*
%TD*%
D12*
%TO.P,R2,1*%
%TO.N,Net-(R1-Pad2)*%
X162941000Y-109220000D03*
D18*
%TO.P,R2,2*%
%TO.N,Net-(C1-Pad1)*%
X162941000Y-101600000D03*
%TD*%
D12*
%TO.P,R3,1*%
%TO.N,Net-(C2-Pad1)*%
X174371000Y-109220000D03*
D18*
%TO.P,R3,2*%
%TO.N,Net-(R3-Pad2)*%
X174371000Y-101600000D03*
%TD*%
%TO.P,R4,2*%
%TO.N,GND*%
X178181000Y-109220000D03*
D12*
%TO.P,R4,1*%
%TO.N,Net-(C2-Pad1)*%
X178181000Y-101600000D03*
%TD*%
%TO.P,R5,1*%
%TO.N,Net-(Q1-Pad2)*%
X171831000Y-114300000D03*
D18*
%TO.P,R5,2*%
%TO.N,Net-(C2-Pad1)*%
X179451000Y-114300000D03*
%TD*%
%TO.P,R6,2*%
%TO.N,Net-(D1-Pad2)*%
X166624000Y-101600000D03*
D12*
%TO.P,R6,1*%
%TO.N,VCC*%
X166624000Y-109220000D03*
%TD*%
%TO.P,R7,1*%
%TO.N,VCC*%
X170434000Y-109220000D03*
D18*
%TO.P,R7,2*%
%TO.N,Net-(D2-Pad2)*%
X170434000Y-101600000D03*
%TD*%
D19*
%TO.P,S1,1*%
%TO.N,Net-(S1-Pad1)*%
X154051000Y-107950000D03*
D20*
%TO.P,S1,2*%
%TO.N,VCC*%
X154051000Y-105450000D03*
%TO.P,S1,3*%
%TO.N,Net-(BAT1-PadPos)*%
X154051000Y-102950000D03*
%TD*%
D21*
%TO.P,U1,8*%
%TO.N,VCC*%
X152781000Y-115570000D03*
%TO.P,U1,7*%
%TO.N,Net-(R1-Pad2)*%
X155321000Y-115570000D03*
%TO.P,U1,6*%
%TO.N,Net-(C1-Pad1)*%
X157861000Y-115570000D03*
%TO.P,U1,5*%
%TO.N,Net-(U1-Pad5)*%
X160401000Y-115570000D03*
%TO.P,U1,4*%
%TO.N,VCC*%
X160401000Y-123190000D03*
%TO.P,U1,3*%
%TO.N,Net-(R3-Pad2)*%
X157861000Y-123190000D03*
%TO.P,U1,2*%
%TO.N,Net-(C1-Pad1)*%
X155321000Y-123190000D03*
%TO.P,U1,1*%
%TO.N,GND*%
X152781000Y-123190000D03*
%TD*%
D22*
%TO.N,Net-(D1-Pad1)*%
X168656000Y-108712000D03*
%TD*%
D23*
%TO.N,Net-(BAT1-PadPos)*%
X151751000Y-100650000D02*
X154051000Y-102950000D01*
X138811000Y-100650000D02*
X151751000Y-100650000D01*
D24*
%TO.N,Net-(C1-Pad1)*%
X157861000Y-115570000D02*
X157861000Y-118491000D01*
X160020000Y-120650000D02*
X166751000Y-120650000D01*
X157861000Y-118491000D02*
X160020000Y-120650000D01*
%TO.N,Net-(C2-Pad1)*%
X176911000Y-120650000D02*
X176911000Y-118745000D01*
X179451000Y-116205000D02*
X179451000Y-114300000D01*
X176911000Y-118745000D02*
X179451000Y-116205000D01*
X179451000Y-114300000D02*
X174371000Y-109220000D01*
X174371000Y-105410000D02*
X178181000Y-101600000D01*
X174371000Y-109220000D02*
X174371000Y-105410000D01*
%TO.N,Net-(D1-Pad1)*%
X166751000Y-113030000D02*
X166878000Y-113030000D01*
X166751000Y-113030000D02*
X167894000Y-113030000D01*
X167894000Y-113030000D02*
X168656000Y-112268000D01*
X168656000Y-112268000D02*
X168656000Y-108712000D01*
%TO.N,Net-(Q1-Pad2)*%
X166751000Y-114300000D02*
X171831000Y-114300000D01*
D23*
%TO.N,VCC*%
X159131000Y-105363000D02*
X159218000Y-105450000D01*
X159131000Y-101600000D02*
X159131000Y-105363000D01*
X154051000Y-105450000D02*
X159218000Y-105450000D01*
D24*
X152019001Y-107481999D02*
X152019001Y-114808001D01*
X152019001Y-114808001D02*
X152781000Y-115570000D01*
X154051000Y-105450000D02*
X152019001Y-107481999D01*
X152781000Y-115570000D02*
X160401000Y-123190000D01*
D23*
X170434000Y-107950000D02*
X170434000Y-109220000D01*
X167934000Y-105450000D02*
X170434000Y-107950000D01*
X166584000Y-109180000D02*
X166624000Y-109220000D01*
X166584000Y-105450000D02*
X166584000Y-109180000D01*
X166584000Y-105450000D02*
X167934000Y-105450000D01*
X159218000Y-105450000D02*
X166584000Y-105450000D01*
D24*
%TO.N,Net-(R1-Pad2)*%
X155321000Y-113030000D02*
X159131000Y-109220000D01*
X155321000Y-115570000D02*
X155321000Y-113030000D01*
X159131000Y-109220000D02*
X162941000Y-109220000D01*
%TD*%
%TO.N,GND*%
G36*
X180454300Y-113675802D02*
G01*
X180368342Y-113547157D01*
X180203843Y-113382658D01*
X180010413Y-113253412D01*
X179795485Y-113164386D01*
X179567318Y-113119000D01*
X179334682Y-113119000D01*
X179106515Y-113164386D01*
X179055102Y-113185682D01*
X175485318Y-109615898D01*
X175504727Y-109569040D01*
X176789091Y-109569040D01*
X176883930Y-109833881D01*
X177028615Y-110075131D01*
X177217586Y-110283519D01*
X177443580Y-110451037D01*
X177697913Y-110571246D01*
X177831961Y-110611904D01*
X178054000Y-110489915D01*
X178054000Y-109347000D01*
X178308000Y-109347000D01*
X178308000Y-110489915D01*
X178530039Y-110611904D01*
X178664087Y-110571246D01*
X178918420Y-110451037D01*
X179144414Y-110283519D01*
X179333385Y-110075131D01*
X179478070Y-109833881D01*
X179572909Y-109569040D01*
X179451624Y-109347000D01*
X178308000Y-109347000D01*
X178054000Y-109347000D01*
X176910376Y-109347000D01*
X176789091Y-109569040D01*
X175504727Y-109569040D01*
X175506614Y-109564485D01*
X175552000Y-109336318D01*
X175552000Y-109103682D01*
X175506614Y-108875515D01*
X175504728Y-108870960D01*
X176789091Y-108870960D01*
X176910376Y-109093000D01*
X178054000Y-109093000D01*
X178054000Y-107950085D01*
X178308000Y-107950085D01*
X178308000Y-109093000D01*
X179451624Y-109093000D01*
X179572909Y-108870960D01*
X179478070Y-108606119D01*
X179333385Y-108364869D01*
X179144414Y-108156481D01*
X178918420Y-107988963D01*
X178664087Y-107868754D01*
X178530039Y-107828096D01*
X178308000Y-107950085D01*
X178054000Y-107950085D01*
X177831961Y-107828096D01*
X177697913Y-107868754D01*
X177443580Y-107988963D01*
X177217586Y-108156481D01*
X177028615Y-108364869D01*
X176883930Y-108606119D01*
X176789091Y-108870960D01*
X175504728Y-108870960D01*
X175417588Y-108660587D01*
X175288342Y-108467157D01*
X175123843Y-108302658D01*
X174930413Y-108173412D01*
X174879000Y-108152116D01*
X174879000Y-105620420D01*
X177785102Y-102714318D01*
X177836515Y-102735614D01*
X178064682Y-102781000D01*
X178297318Y-102781000D01*
X178525485Y-102735614D01*
X178740413Y-102646588D01*
X178933843Y-102517342D01*
X179098342Y-102352843D01*
X179227588Y-102159413D01*
X179316614Y-101944485D01*
X179362000Y-101716318D01*
X179362000Y-101483682D01*
X179316614Y-101255515D01*
X179227588Y-101040587D01*
X179098342Y-100847157D01*
X178933843Y-100682658D01*
X178740413Y-100553412D01*
X178525485Y-100464386D01*
X178297318Y-100419000D01*
X178064682Y-100419000D01*
X177836515Y-100464386D01*
X177621587Y-100553412D01*
X177428157Y-100682658D01*
X177263658Y-100847157D01*
X177134412Y-101040587D01*
X177045386Y-101255515D01*
X177000000Y-101483682D01*
X177000000Y-101716318D01*
X177045386Y-101944485D01*
X177066682Y-101995898D01*
X174029430Y-105033150D01*
X174010053Y-105049052D01*
X173994151Y-105068429D01*
X173994150Y-105068430D01*
X173946571Y-105126405D01*
X173925191Y-105166405D01*
X173899400Y-105214657D01*
X173873323Y-105300623D01*
X173870352Y-105310416D01*
X173860543Y-105410000D01*
X173863001Y-105434954D01*
X173863000Y-108152116D01*
X173811587Y-108173412D01*
X173618157Y-108302658D01*
X173453658Y-108467157D01*
X173324412Y-108660587D01*
X173235386Y-108875515D01*
X173190000Y-109103682D01*
X173190000Y-109336318D01*
X173235386Y-109564485D01*
X173324412Y-109779413D01*
X173453658Y-109972843D01*
X173618157Y-110137342D01*
X173811587Y-110266588D01*
X174026515Y-110355614D01*
X174254682Y-110401000D01*
X174487318Y-110401000D01*
X174715485Y-110355614D01*
X174766898Y-110334318D01*
X178336682Y-113904102D01*
X178315386Y-113955515D01*
X178270000Y-114183682D01*
X178270000Y-114416318D01*
X178315386Y-114644485D01*
X178404412Y-114859413D01*
X178533658Y-115052843D01*
X178698157Y-115217342D01*
X178891587Y-115346588D01*
X178943000Y-115367884D01*
X178943000Y-115994579D01*
X176569430Y-118368150D01*
X176550053Y-118384052D01*
X176534151Y-118403429D01*
X176534150Y-118403430D01*
X176486571Y-118461405D01*
X176439400Y-118549657D01*
X176410352Y-118645416D01*
X176400543Y-118745000D01*
X176403001Y-118769954D01*
X176403001Y-119467157D01*
X176111000Y-119467157D01*
X176036311Y-119474513D01*
X175964492Y-119496299D01*
X175898304Y-119531678D01*
X175840289Y-119579289D01*
X175792678Y-119637304D01*
X175757299Y-119703492D01*
X175735513Y-119775311D01*
X175728157Y-119850000D01*
X175728157Y-121450000D01*
X175735513Y-121524689D01*
X175757299Y-121596508D01*
X175792678Y-121662696D01*
X175840289Y-121720711D01*
X175898304Y-121768322D01*
X175964492Y-121803701D01*
X176036311Y-121825487D01*
X176111000Y-121832843D01*
X176332609Y-121832843D01*
X176294708Y-121846397D01*
X176169486Y-121913329D01*
X176097903Y-122157298D01*
X176911000Y-122970395D01*
X177724097Y-122157298D01*
X177652514Y-121913329D01*
X177482415Y-121832843D01*
X177711000Y-121832843D01*
X177785689Y-121825487D01*
X177857508Y-121803701D01*
X177923696Y-121768322D01*
X177981711Y-121720711D01*
X178029322Y-121662696D01*
X178064701Y-121596508D01*
X178086487Y-121524689D01*
X178093843Y-121450000D01*
X178093843Y-119850000D01*
X178086487Y-119775311D01*
X178064701Y-119703492D01*
X178029322Y-119637304D01*
X177981711Y-119579289D01*
X177923696Y-119531678D01*
X177857508Y-119496299D01*
X177785689Y-119474513D01*
X177711000Y-119467157D01*
X177419000Y-119467157D01*
X177419000Y-118955420D01*
X179792571Y-116581850D01*
X179811948Y-116565948D01*
X179830624Y-116543190D01*
X179875429Y-116488596D01*
X179922600Y-116400345D01*
X179922601Y-116400342D01*
X179951649Y-116304585D01*
X179959000Y-116229947D01*
X179959000Y-116229945D01*
X179961457Y-116205001D01*
X179959000Y-116180057D01*
X179959000Y-115367884D01*
X180010413Y-115346588D01*
X180203843Y-115217342D01*
X180368342Y-115052843D01*
X180454300Y-114924198D01*
X180454300Y-126606300D01*
X127393700Y-126606300D01*
X127393700Y-124155565D01*
X151995040Y-124155565D01*
X152062020Y-124395656D01*
X152311048Y-124512756D01*
X152578135Y-124579023D01*
X152853017Y-124591910D01*
X153125133Y-124550922D01*
X153384023Y-124457636D01*
X153499980Y-124395656D01*
X153566960Y-124155565D01*
X152781000Y-123369605D01*
X151995040Y-124155565D01*
X127393700Y-124155565D01*
X127393700Y-123262017D01*
X151379090Y-123262017D01*
X151420078Y-123534133D01*
X151513364Y-123793023D01*
X151575344Y-123908980D01*
X151815435Y-123975960D01*
X152601395Y-123190000D01*
X152960605Y-123190000D01*
X153746565Y-123975960D01*
X153986656Y-123908980D01*
X154103756Y-123659952D01*
X154170023Y-123392865D01*
X154178000Y-123222714D01*
X154178000Y-123302576D01*
X154221925Y-123523401D01*
X154308087Y-123731413D01*
X154433174Y-123918620D01*
X154592380Y-124077826D01*
X154779587Y-124202913D01*
X154987599Y-124289075D01*
X155208424Y-124333000D01*
X155433576Y-124333000D01*
X155654401Y-124289075D01*
X155862413Y-124202913D01*
X156049620Y-124077826D01*
X156208826Y-123918620D01*
X156333913Y-123731413D01*
X156420075Y-123523401D01*
X156464000Y-123302576D01*
X156464000Y-123077424D01*
X156718000Y-123077424D01*
X156718000Y-123302576D01*
X156761925Y-123523401D01*
X156848087Y-123731413D01*
X156973174Y-123918620D01*
X157132380Y-124077826D01*
X157319587Y-124202913D01*
X157527599Y-124289075D01*
X157748424Y-124333000D01*
X157973576Y-124333000D01*
X158194401Y-124289075D01*
X158402413Y-124202913D01*
X158589620Y-124077826D01*
X158748826Y-123918620D01*
X158873913Y-123731413D01*
X158960075Y-123523401D01*
X159004000Y-123302576D01*
X159004000Y-123077424D01*
X158960075Y-122856599D01*
X158873913Y-122648587D01*
X158748826Y-122461380D01*
X158589620Y-122302174D01*
X158402413Y-122177087D01*
X158194401Y-122090925D01*
X157973576Y-122047000D01*
X157748424Y-122047000D01*
X157527599Y-122090925D01*
X157319587Y-122177087D01*
X157132380Y-122302174D01*
X156973174Y-122461380D01*
X156848087Y-122648587D01*
X156761925Y-122856599D01*
X156718000Y-123077424D01*
X156464000Y-123077424D01*
X156420075Y-122856599D01*
X156333913Y-122648587D01*
X156208826Y-122461380D01*
X156049620Y-122302174D01*
X155862413Y-122177087D01*
X155654401Y-122090925D01*
X155433576Y-122047000D01*
X155208424Y-122047000D01*
X154987599Y-122090925D01*
X154779587Y-122177087D01*
X154592380Y-122302174D01*
X154433174Y-122461380D01*
X154308087Y-122648587D01*
X154221925Y-122856599D01*
X154178000Y-123077424D01*
X154178000Y-123085386D01*
X154141922Y-122845867D01*
X154048636Y-122586977D01*
X153986656Y-122471020D01*
X153746565Y-122404040D01*
X152960605Y-123190000D01*
X152601395Y-123190000D01*
X151815435Y-122404040D01*
X151575344Y-122471020D01*
X151458244Y-122720048D01*
X151391977Y-122987135D01*
X151379090Y-123262017D01*
X127393700Y-123262017D01*
X127393700Y-121735000D01*
X137087928Y-121735000D01*
X137100188Y-121859482D01*
X137136498Y-121979180D01*
X137195463Y-122089494D01*
X137274815Y-122186185D01*
X137371506Y-122265537D01*
X137481820Y-122324502D01*
X137601518Y-122360812D01*
X137726000Y-122373072D01*
X138525250Y-122370000D01*
X138684000Y-122211250D01*
X138684000Y-120777000D01*
X138938000Y-120777000D01*
X138938000Y-122211250D01*
X139096750Y-122370000D01*
X139896000Y-122373072D01*
X140020482Y-122360812D01*
X140140180Y-122324502D01*
X140250494Y-122265537D01*
X140300577Y-122224435D01*
X151995040Y-122224435D01*
X152781000Y-123010395D01*
X153566960Y-122224435D01*
X153499980Y-121984344D01*
X153250952Y-121867244D01*
X152983865Y-121800977D01*
X152708983Y-121788090D01*
X152436867Y-121829078D01*
X152177977Y-121922364D01*
X152062020Y-121984344D01*
X151995040Y-122224435D01*
X140300577Y-122224435D01*
X140347185Y-122186185D01*
X140426537Y-122089494D01*
X140485502Y-121979180D01*
X140521812Y-121859482D01*
X140534072Y-121735000D01*
X140531000Y-120935750D01*
X140372250Y-120777000D01*
X138938000Y-120777000D01*
X138684000Y-120777000D01*
X137249750Y-120777000D01*
X137091000Y-120935750D01*
X137087928Y-121735000D01*
X127393700Y-121735000D01*
X127393700Y-119565000D01*
X137087928Y-119565000D01*
X137091000Y-120364250D01*
X137249750Y-120523000D01*
X138684000Y-120523000D01*
X138684000Y-119088750D01*
X138938000Y-119088750D01*
X138938000Y-120523000D01*
X140372250Y-120523000D01*
X140531000Y-120364250D01*
X140534072Y-119565000D01*
X140521812Y-119440518D01*
X140485502Y-119320820D01*
X140426537Y-119210506D01*
X140347185Y-119113815D01*
X140250494Y-119034463D01*
X140140180Y-118975498D01*
X140020482Y-118939188D01*
X139896000Y-118926928D01*
X139096750Y-118930000D01*
X138938000Y-119088750D01*
X138684000Y-119088750D01*
X138525250Y-118930000D01*
X137726000Y-118926928D01*
X137601518Y-118939188D01*
X137481820Y-118975498D01*
X137371506Y-119034463D01*
X137274815Y-119113815D01*
X137195463Y-119210506D01*
X137136498Y-119320820D01*
X137100188Y-119440518D01*
X137087928Y-119565000D01*
X127393700Y-119565000D01*
X127393700Y-100489360D01*
X137180000Y-100489360D01*
X137180000Y-100810640D01*
X137242678Y-101125745D01*
X137365626Y-101422568D01*
X137544119Y-101689702D01*
X137771298Y-101916881D01*
X138038432Y-102095374D01*
X138335255Y-102218322D01*
X138650360Y-102281000D01*
X138971640Y-102281000D01*
X139286745Y-102218322D01*
X139583568Y-102095374D01*
X139850702Y-101916881D01*
X140077881Y-101689702D01*
X140256374Y-101422568D01*
X140260751Y-101412000D01*
X151435370Y-101412000D01*
X152740287Y-102716918D01*
X152720000Y-102818908D01*
X152720000Y-103081092D01*
X152771150Y-103338238D01*
X152871483Y-103580465D01*
X153017145Y-103798463D01*
X153202537Y-103983855D01*
X153420535Y-104129517D01*
X153590697Y-104200000D01*
X153420535Y-104270483D01*
X153202537Y-104416145D01*
X153017145Y-104601537D01*
X152871483Y-104819535D01*
X152771150Y-105061762D01*
X152720000Y-105318908D01*
X152720000Y-105581092D01*
X152771150Y-105838238D01*
X152821877Y-105960703D01*
X151677436Y-107105144D01*
X151658053Y-107121051D01*
X151594572Y-107198404D01*
X151547400Y-107286657D01*
X151518352Y-107382415D01*
X151511001Y-107457052D01*
X151508544Y-107481999D01*
X151511001Y-107506943D01*
X151511002Y-114783047D01*
X151508544Y-114808001D01*
X151517475Y-114898675D01*
X151518353Y-114907586D01*
X151529860Y-114945518D01*
X151547401Y-115003344D01*
X151594572Y-115091596D01*
X151616139Y-115117875D01*
X151658054Y-115168949D01*
X151677431Y-115184851D01*
X151695765Y-115203185D01*
X151681925Y-115236599D01*
X151638000Y-115457424D01*
X151638000Y-115682576D01*
X151681925Y-115903401D01*
X151768087Y-116111413D01*
X151893174Y-116298620D01*
X152052380Y-116457826D01*
X152239587Y-116582913D01*
X152447599Y-116669075D01*
X152668424Y-116713000D01*
X152893576Y-116713000D01*
X153114401Y-116669075D01*
X153147814Y-116655235D01*
X159315765Y-122823186D01*
X159301925Y-122856599D01*
X159258000Y-123077424D01*
X159258000Y-123302576D01*
X159301925Y-123523401D01*
X159388087Y-123731413D01*
X159513174Y-123918620D01*
X159672380Y-124077826D01*
X159859587Y-124202913D01*
X160067599Y-124289075D01*
X160288424Y-124333000D01*
X160513576Y-124333000D01*
X160734401Y-124289075D01*
X160942413Y-124202913D01*
X161032525Y-124142702D01*
X176097903Y-124142702D01*
X176169486Y-124386671D01*
X176424996Y-124507571D01*
X176699184Y-124576300D01*
X176981512Y-124590217D01*
X177261130Y-124548787D01*
X177527292Y-124453603D01*
X177652514Y-124386671D01*
X177724097Y-124142702D01*
X176911000Y-123329605D01*
X176097903Y-124142702D01*
X161032525Y-124142702D01*
X161129620Y-124077826D01*
X161288826Y-123918620D01*
X161413913Y-123731413D01*
X161450658Y-123642702D01*
X165937903Y-123642702D01*
X166009486Y-123886671D01*
X166264996Y-124007571D01*
X166539184Y-124076300D01*
X166821512Y-124090217D01*
X167101130Y-124048787D01*
X167367292Y-123953603D01*
X167492514Y-123886671D01*
X167564097Y-123642702D01*
X166751000Y-122829605D01*
X165937903Y-123642702D01*
X161450658Y-123642702D01*
X161500075Y-123523401D01*
X161544000Y-123302576D01*
X161544000Y-123077424D01*
X161500075Y-122856599D01*
X161413913Y-122648587D01*
X161288826Y-122461380D01*
X161129620Y-122302174D01*
X160942413Y-122177087D01*
X160734401Y-122090925D01*
X160513576Y-122047000D01*
X160288424Y-122047000D01*
X160067599Y-122090925D01*
X160034186Y-122104765D01*
X153866235Y-115936814D01*
X153880075Y-115903401D01*
X153924000Y-115682576D01*
X153924000Y-115457424D01*
X154178000Y-115457424D01*
X154178000Y-115682576D01*
X154221925Y-115903401D01*
X154308087Y-116111413D01*
X154433174Y-116298620D01*
X154592380Y-116457826D01*
X154779587Y-116582913D01*
X154987599Y-116669075D01*
X155208424Y-116713000D01*
X155433576Y-116713000D01*
X155654401Y-116669075D01*
X155862413Y-116582913D01*
X156049620Y-116457826D01*
X156208826Y-116298620D01*
X156333913Y-116111413D01*
X156420075Y-115903401D01*
X156464000Y-115682576D01*
X156464000Y-115457424D01*
X156718000Y-115457424D01*
X156718000Y-115682576D01*
X156761925Y-115903401D01*
X156848087Y-116111413D01*
X156973174Y-116298620D01*
X157132380Y-116457826D01*
X157319587Y-116582913D01*
X157353000Y-116596753D01*
X157353001Y-118466046D01*
X157350543Y-118491000D01*
X157360352Y-118590584D01*
X157389400Y-118686343D01*
X157436571Y-118774595D01*
X157484150Y-118832570D01*
X157500053Y-118851948D01*
X157519430Y-118867850D01*
X159643150Y-120991571D01*
X159659052Y-121010948D01*
X159678429Y-121026850D01*
X159736404Y-121074429D01*
X159783576Y-121099643D01*
X159824657Y-121121601D01*
X159920415Y-121150649D01*
X159995053Y-121158000D01*
X159995055Y-121158000D01*
X160019999Y-121160457D01*
X160044943Y-121158000D01*
X165568157Y-121158000D01*
X165568157Y-121450000D01*
X165575513Y-121524689D01*
X165597299Y-121596508D01*
X165632678Y-121662696D01*
X165663004Y-121699649D01*
X165642023Y-121720630D01*
X165758296Y-121836903D01*
X165514329Y-121908486D01*
X165393429Y-122163996D01*
X165324700Y-122438184D01*
X165310783Y-122720512D01*
X165352213Y-123000130D01*
X165447397Y-123266292D01*
X165514329Y-123391514D01*
X165758298Y-123463097D01*
X166571395Y-122650000D01*
X166557253Y-122635858D01*
X166736858Y-122456253D01*
X166751000Y-122470395D01*
X166765143Y-122456253D01*
X166944748Y-122635858D01*
X166930605Y-122650000D01*
X167743702Y-123463097D01*
X167987671Y-123391514D01*
X168068584Y-123220512D01*
X175470783Y-123220512D01*
X175512213Y-123500130D01*
X175607397Y-123766292D01*
X175674329Y-123891514D01*
X175918298Y-123963097D01*
X176731395Y-123150000D01*
X177090605Y-123150000D01*
X177903702Y-123963097D01*
X178147671Y-123891514D01*
X178268571Y-123636004D01*
X178337300Y-123361816D01*
X178351217Y-123079488D01*
X178309787Y-122799870D01*
X178214603Y-122533708D01*
X178147671Y-122408486D01*
X177903702Y-122336903D01*
X177090605Y-123150000D01*
X176731395Y-123150000D01*
X175918298Y-122336903D01*
X175674329Y-122408486D01*
X175553429Y-122663996D01*
X175484700Y-122938184D01*
X175470783Y-123220512D01*
X168068584Y-123220512D01*
X168108571Y-123136004D01*
X168177300Y-122861816D01*
X168191217Y-122579488D01*
X168149787Y-122299870D01*
X168054603Y-122033708D01*
X167987671Y-121908486D01*
X167743704Y-121836903D01*
X167859977Y-121720630D01*
X167838996Y-121699649D01*
X167869322Y-121662696D01*
X167904701Y-121596508D01*
X167926487Y-121524689D01*
X167933843Y-121450000D01*
X167933843Y-119850000D01*
X167926487Y-119775311D01*
X167904701Y-119703492D01*
X167869322Y-119637304D01*
X167821711Y-119579289D01*
X167763696Y-119531678D01*
X167697508Y-119496299D01*
X167625689Y-119474513D01*
X167551000Y-119467157D01*
X165951000Y-119467157D01*
X165876311Y-119474513D01*
X165804492Y-119496299D01*
X165738304Y-119531678D01*
X165680289Y-119579289D01*
X165632678Y-119637304D01*
X165597299Y-119703492D01*
X165575513Y-119775311D01*
X165568157Y-119850000D01*
X165568157Y-120142000D01*
X160230421Y-120142000D01*
X158369000Y-118280580D01*
X158369000Y-116596753D01*
X158402413Y-116582913D01*
X158589620Y-116457826D01*
X158748826Y-116298620D01*
X158873913Y-116111413D01*
X158960075Y-115903401D01*
X159004000Y-115682576D01*
X159004000Y-115457424D01*
X159258000Y-115457424D01*
X159258000Y-115682576D01*
X159301925Y-115903401D01*
X159388087Y-116111413D01*
X159513174Y-116298620D01*
X159672380Y-116457826D01*
X159859587Y-116582913D01*
X160067599Y-116669075D01*
X160288424Y-116713000D01*
X160513576Y-116713000D01*
X160734401Y-116669075D01*
X160942413Y-116582913D01*
X161129620Y-116457826D01*
X161288826Y-116298620D01*
X161413913Y-116111413D01*
X161431066Y-116070000D01*
X165362928Y-116070000D01*
X165375188Y-116194482D01*
X165411498Y-116314180D01*
X165470463Y-116424494D01*
X165549815Y-116521185D01*
X165646506Y-116600537D01*
X165756820Y-116659502D01*
X165876518Y-116695812D01*
X166001000Y-116708072D01*
X166465250Y-116705000D01*
X166624000Y-116546250D01*
X166624000Y-115697000D01*
X166878000Y-115697000D01*
X166878000Y-116546250D01*
X167036750Y-116705000D01*
X167501000Y-116708072D01*
X167625482Y-116695812D01*
X167745180Y-116659502D01*
X167855494Y-116600537D01*
X167952185Y-116521185D01*
X168031537Y-116424494D01*
X168090502Y-116314180D01*
X168126812Y-116194482D01*
X168139072Y-116070000D01*
X168136000Y-115855750D01*
X167977250Y-115697000D01*
X166878000Y-115697000D01*
X166624000Y-115697000D01*
X165524750Y-115697000D01*
X165366000Y-115855750D01*
X165362928Y-116070000D01*
X161431066Y-116070000D01*
X161500075Y-115903401D01*
X161544000Y-115682576D01*
X161544000Y-115457424D01*
X161500075Y-115236599D01*
X161413913Y-115028587D01*
X161288826Y-114841380D01*
X161129620Y-114682174D01*
X160942413Y-114557087D01*
X160734401Y-114470925D01*
X160513576Y-114427000D01*
X160288424Y-114427000D01*
X160067599Y-114470925D01*
X159859587Y-114557087D01*
X159672380Y-114682174D01*
X159513174Y-114841380D01*
X159388087Y-115028587D01*
X159301925Y-115236599D01*
X159258000Y-115457424D01*
X159004000Y-115457424D01*
X158960075Y-115236599D01*
X158873913Y-115028587D01*
X158748826Y-114841380D01*
X158589620Y-114682174D01*
X158402413Y-114557087D01*
X158194401Y-114470925D01*
X157973576Y-114427000D01*
X157748424Y-114427000D01*
X157527599Y-114470925D01*
X157319587Y-114557087D01*
X157132380Y-114682174D01*
X156973174Y-114841380D01*
X156848087Y-115028587D01*
X156761925Y-115236599D01*
X156718000Y-115457424D01*
X156464000Y-115457424D01*
X156420075Y-115236599D01*
X156333913Y-115028587D01*
X156208826Y-114841380D01*
X156049620Y-114682174D01*
X155862413Y-114557087D01*
X155829000Y-114543247D01*
X155829000Y-113240420D01*
X158735102Y-110334318D01*
X158786515Y-110355614D01*
X159014682Y-110401000D01*
X159247318Y-110401000D01*
X159475485Y-110355614D01*
X159690413Y-110266588D01*
X159883843Y-110137342D01*
X160048342Y-109972843D01*
X160177588Y-109779413D01*
X160198884Y-109728000D01*
X161873116Y-109728000D01*
X161894412Y-109779413D01*
X162023658Y-109972843D01*
X162188157Y-110137342D01*
X162381587Y-110266588D01*
X162596515Y-110355614D01*
X162824682Y-110401000D01*
X163057318Y-110401000D01*
X163285485Y-110355614D01*
X163500413Y-110266588D01*
X163693843Y-110137342D01*
X163858342Y-109972843D01*
X163987588Y-109779413D01*
X164076614Y-109564485D01*
X164122000Y-109336318D01*
X164122000Y-109103682D01*
X164076614Y-108875515D01*
X163987588Y-108660587D01*
X163858342Y-108467157D01*
X163693843Y-108302658D01*
X163500413Y-108173412D01*
X163285485Y-108084386D01*
X163057318Y-108039000D01*
X162824682Y-108039000D01*
X162596515Y-108084386D01*
X162381587Y-108173412D01*
X162188157Y-108302658D01*
X162023658Y-108467157D01*
X161894412Y-108660587D01*
X161873116Y-108712000D01*
X160198884Y-108712000D01*
X160177588Y-108660587D01*
X160048342Y-108467157D01*
X159883843Y-108302658D01*
X159690413Y-108173412D01*
X159475485Y-108084386D01*
X159247318Y-108039000D01*
X159014682Y-108039000D01*
X158786515Y-108084386D01*
X158571587Y-108173412D01*
X158378157Y-108302658D01*
X158213658Y-108467157D01*
X158084412Y-108660587D01*
X157995386Y-108875515D01*
X157950000Y-109103682D01*
X157950000Y-109336318D01*
X157995386Y-109564485D01*
X158016682Y-109615898D01*
X154979430Y-112653150D01*
X154960053Y-112669052D01*
X154944151Y-112688429D01*
X154944150Y-112688430D01*
X154896571Y-112746405D01*
X154849400Y-112834657D01*
X154820352Y-112930416D01*
X154810543Y-113030000D01*
X154813001Y-113054954D01*
X154813000Y-114543247D01*
X154779587Y-114557087D01*
X154592380Y-114682174D01*
X154433174Y-114841380D01*
X154308087Y-115028587D01*
X154221925Y-115236599D01*
X154178000Y-115457424D01*
X153924000Y-115457424D01*
X153880075Y-115236599D01*
X153793913Y-115028587D01*
X153668826Y-114841380D01*
X153509620Y-114682174D01*
X153322413Y-114557087D01*
X153114401Y-114470925D01*
X152893576Y-114427000D01*
X152668424Y-114427000D01*
X152527001Y-114455131D01*
X152527001Y-107692419D01*
X152718157Y-107501263D01*
X152718157Y-108900000D01*
X152725513Y-108974689D01*
X152747299Y-109046508D01*
X152782678Y-109112696D01*
X152830289Y-109170711D01*
X152888304Y-109218322D01*
X152954492Y-109253701D01*
X153026311Y-109275487D01*
X153101000Y-109282843D01*
X155001000Y-109282843D01*
X155075689Y-109275487D01*
X155147508Y-109253701D01*
X155213696Y-109218322D01*
X155271711Y-109170711D01*
X155319322Y-109112696D01*
X155354701Y-109046508D01*
X155376487Y-108974689D01*
X155383843Y-108900000D01*
X155383843Y-107000000D01*
X155376487Y-106925311D01*
X155354701Y-106853492D01*
X155319322Y-106787304D01*
X155271711Y-106729289D01*
X155213696Y-106681678D01*
X155147508Y-106646299D01*
X155075689Y-106624513D01*
X155001000Y-106617157D01*
X154699963Y-106617157D01*
X154899463Y-106483855D01*
X155084855Y-106298463D01*
X155142628Y-106212000D01*
X159180577Y-106212000D01*
X159218000Y-106215686D01*
X159255423Y-106212000D01*
X165822000Y-106212000D01*
X165822001Y-108351814D01*
X165706658Y-108467157D01*
X165577412Y-108660587D01*
X165488386Y-108875515D01*
X165443000Y-109103682D01*
X165443000Y-109336318D01*
X165488386Y-109564485D01*
X165577412Y-109779413D01*
X165706658Y-109972843D01*
X165871157Y-110137342D01*
X166064587Y-110266588D01*
X166279515Y-110355614D01*
X166507682Y-110401000D01*
X166740318Y-110401000D01*
X166968485Y-110355614D01*
X167183413Y-110266588D01*
X167376843Y-110137342D01*
X167541342Y-109972843D01*
X167670588Y-109779413D01*
X167759614Y-109564485D01*
X167805000Y-109336318D01*
X167805000Y-109103682D01*
X167759614Y-108875515D01*
X167670588Y-108660587D01*
X167541342Y-108467157D01*
X167376843Y-108302658D01*
X167346000Y-108282049D01*
X167346000Y-106212000D01*
X167618370Y-106212000D01*
X169672000Y-108265631D01*
X169672000Y-108311815D01*
X169516658Y-108467157D01*
X169414606Y-108619888D01*
X169388717Y-108489733D01*
X169331276Y-108351058D01*
X169247884Y-108226253D01*
X169141747Y-108120116D01*
X169016942Y-108036724D01*
X168878267Y-107979283D01*
X168731050Y-107950000D01*
X168580950Y-107950000D01*
X168433733Y-107979283D01*
X168295058Y-108036724D01*
X168170253Y-108120116D01*
X168064116Y-108226253D01*
X167980724Y-108351058D01*
X167923283Y-108489733D01*
X167894000Y-108636950D01*
X167894000Y-108787050D01*
X167923283Y-108934267D01*
X167980724Y-109072942D01*
X168064116Y-109197747D01*
X168148001Y-109281632D01*
X168148000Y-112057580D01*
X167705667Y-112499913D01*
X167626975Y-112404025D01*
X167492825Y-112293932D01*
X167339775Y-112212125D01*
X167173706Y-112161748D01*
X167044273Y-112149000D01*
X166457727Y-112149000D01*
X166328294Y-112161748D01*
X166162225Y-112212125D01*
X166009175Y-112293932D01*
X165875025Y-112404025D01*
X165764932Y-112538175D01*
X165683125Y-112691225D01*
X165632748Y-112857294D01*
X165615738Y-113030000D01*
X165632748Y-113202706D01*
X165683125Y-113368775D01*
X165764932Y-113521825D01*
X165875025Y-113655975D01*
X165886022Y-113665000D01*
X165875025Y-113674025D01*
X165764932Y-113808175D01*
X165683125Y-113961225D01*
X165632748Y-114127294D01*
X165615738Y-114300000D01*
X165632748Y-114472706D01*
X165652093Y-114536477D01*
X165646506Y-114539463D01*
X165549815Y-114618815D01*
X165470463Y-114715506D01*
X165411498Y-114825820D01*
X165375188Y-114945518D01*
X165362928Y-115070000D01*
X165366000Y-115284250D01*
X165524750Y-115443000D01*
X166624000Y-115443000D01*
X166624000Y-115423000D01*
X166878000Y-115423000D01*
X166878000Y-115443000D01*
X167977250Y-115443000D01*
X168136000Y-115284250D01*
X168139072Y-115070000D01*
X168126812Y-114945518D01*
X168090502Y-114825820D01*
X168080977Y-114808000D01*
X170763116Y-114808000D01*
X170784412Y-114859413D01*
X170913658Y-115052843D01*
X171078157Y-115217342D01*
X171271587Y-115346588D01*
X171486515Y-115435614D01*
X171714682Y-115481000D01*
X171947318Y-115481000D01*
X172175485Y-115435614D01*
X172390413Y-115346588D01*
X172583843Y-115217342D01*
X172748342Y-115052843D01*
X172877588Y-114859413D01*
X172966614Y-114644485D01*
X173012000Y-114416318D01*
X173012000Y-114183682D01*
X172966614Y-113955515D01*
X172877588Y-113740587D01*
X172748342Y-113547157D01*
X172583843Y-113382658D01*
X172390413Y-113253412D01*
X172175485Y-113164386D01*
X171947318Y-113119000D01*
X171714682Y-113119000D01*
X171486515Y-113164386D01*
X171271587Y-113253412D01*
X171078157Y-113382658D01*
X170913658Y-113547157D01*
X170784412Y-113740587D01*
X170763116Y-113792000D01*
X167723794Y-113792000D01*
X167626975Y-113674025D01*
X167615978Y-113665000D01*
X167626975Y-113655975D01*
X167723794Y-113538000D01*
X167869056Y-113538000D01*
X167894000Y-113540457D01*
X167918944Y-113538000D01*
X167918947Y-113538000D01*
X167993585Y-113530649D01*
X168089343Y-113501601D01*
X168177595Y-113454429D01*
X168254948Y-113390948D01*
X168270855Y-113371565D01*
X168997565Y-112644855D01*
X169016948Y-112628948D01*
X169080429Y-112551595D01*
X169127601Y-112463343D01*
X169156649Y-112367585D01*
X169164000Y-112292947D01*
X169164000Y-112292944D01*
X169166457Y-112268000D01*
X169164000Y-112243056D01*
X169164000Y-109281631D01*
X169247884Y-109197747D01*
X169253000Y-109190090D01*
X169253000Y-109336318D01*
X169298386Y-109564485D01*
X169387412Y-109779413D01*
X169516658Y-109972843D01*
X169681157Y-110137342D01*
X169874587Y-110266588D01*
X170089515Y-110355614D01*
X170317682Y-110401000D01*
X170550318Y-110401000D01*
X170778485Y-110355614D01*
X170993413Y-110266588D01*
X171186843Y-110137342D01*
X171351342Y-109972843D01*
X171480588Y-109779413D01*
X171569614Y-109564485D01*
X171615000Y-109336318D01*
X171615000Y-109103682D01*
X171569614Y-108875515D01*
X171480588Y-108660587D01*
X171351342Y-108467157D01*
X171196000Y-108311815D01*
X171196000Y-107987423D01*
X171199686Y-107950000D01*
X171196000Y-107912574D01*
X171184974Y-107800622D01*
X171141402Y-107656985D01*
X171070646Y-107524609D01*
X171070645Y-107524607D01*
X170999279Y-107437648D01*
X170975422Y-107408578D01*
X170946353Y-107384722D01*
X168499284Y-104937654D01*
X168475422Y-104908578D01*
X168359392Y-104813355D01*
X168227015Y-104742598D01*
X168083378Y-104699026D01*
X167971426Y-104688000D01*
X167971423Y-104688000D01*
X167934000Y-104684314D01*
X167896577Y-104688000D01*
X166621425Y-104688000D01*
X166584000Y-104684314D01*
X166546574Y-104688000D01*
X159893000Y-104688000D01*
X159893000Y-102508185D01*
X160048342Y-102352843D01*
X160177588Y-102159413D01*
X160266614Y-101944485D01*
X160312000Y-101716318D01*
X160312000Y-101483682D01*
X161760000Y-101483682D01*
X161760000Y-101716318D01*
X161805386Y-101944485D01*
X161894412Y-102159413D01*
X162023658Y-102352843D01*
X162188157Y-102517342D01*
X162381587Y-102646588D01*
X162596515Y-102735614D01*
X162824682Y-102781000D01*
X163057318Y-102781000D01*
X163285485Y-102735614D01*
X163500413Y-102646588D01*
X163693843Y-102517342D01*
X163858342Y-102352843D01*
X163987588Y-102159413D01*
X164076614Y-101944485D01*
X164122000Y-101716318D01*
X164122000Y-101483682D01*
X165443000Y-101483682D01*
X165443000Y-101716318D01*
X165488386Y-101944485D01*
X165577412Y-102159413D01*
X165706658Y-102352843D01*
X165871157Y-102517342D01*
X166064587Y-102646588D01*
X166279515Y-102735614D01*
X166507682Y-102781000D01*
X166740318Y-102781000D01*
X166968485Y-102735614D01*
X167183413Y-102646588D01*
X167376843Y-102517342D01*
X167541342Y-102352843D01*
X167670588Y-102159413D01*
X167759614Y-101944485D01*
X167805000Y-101716318D01*
X167805000Y-101483682D01*
X169253000Y-101483682D01*
X169253000Y-101716318D01*
X169298386Y-101944485D01*
X169387412Y-102159413D01*
X169516658Y-102352843D01*
X169681157Y-102517342D01*
X169874587Y-102646588D01*
X170089515Y-102735614D01*
X170317682Y-102781000D01*
X170550318Y-102781000D01*
X170778485Y-102735614D01*
X170993413Y-102646588D01*
X171186843Y-102517342D01*
X171351342Y-102352843D01*
X171480588Y-102159413D01*
X171569614Y-101944485D01*
X171615000Y-101716318D01*
X171615000Y-101483682D01*
X173190000Y-101483682D01*
X173190000Y-101716318D01*
X173235386Y-101944485D01*
X173324412Y-102159413D01*
X173453658Y-102352843D01*
X173618157Y-102517342D01*
X173811587Y-102646588D01*
X174026515Y-102735614D01*
X174254682Y-102781000D01*
X174487318Y-102781000D01*
X174715485Y-102735614D01*
X174930413Y-102646588D01*
X175123843Y-102517342D01*
X175288342Y-102352843D01*
X175417588Y-102159413D01*
X175506614Y-101944485D01*
X175552000Y-101716318D01*
X175552000Y-101483682D01*
X175506614Y-101255515D01*
X175417588Y-101040587D01*
X175288342Y-100847157D01*
X175123843Y-100682658D01*
X174930413Y-100553412D01*
X174715485Y-100464386D01*
X174487318Y-100419000D01*
X174254682Y-100419000D01*
X174026515Y-100464386D01*
X173811587Y-100553412D01*
X173618157Y-100682658D01*
X173453658Y-100847157D01*
X173324412Y-101040587D01*
X173235386Y-101255515D01*
X173190000Y-101483682D01*
X171615000Y-101483682D01*
X171569614Y-101255515D01*
X171480588Y-101040587D01*
X171351342Y-100847157D01*
X171186843Y-100682658D01*
X170993413Y-100553412D01*
X170778485Y-100464386D01*
X170550318Y-100419000D01*
X170317682Y-100419000D01*
X170089515Y-100464386D01*
X169874587Y-100553412D01*
X169681157Y-100682658D01*
X169516658Y-100847157D01*
X169387412Y-101040587D01*
X169298386Y-101255515D01*
X169253000Y-101483682D01*
X167805000Y-101483682D01*
X167759614Y-101255515D01*
X167670588Y-101040587D01*
X167541342Y-100847157D01*
X167376843Y-100682658D01*
X167183413Y-100553412D01*
X166968485Y-100464386D01*
X166740318Y-100419000D01*
X166507682Y-100419000D01*
X166279515Y-100464386D01*
X166064587Y-100553412D01*
X165871157Y-100682658D01*
X165706658Y-100847157D01*
X165577412Y-101040587D01*
X165488386Y-101255515D01*
X165443000Y-101483682D01*
X164122000Y-101483682D01*
X164076614Y-101255515D01*
X163987588Y-101040587D01*
X163858342Y-100847157D01*
X163693843Y-100682658D01*
X163500413Y-100553412D01*
X163285485Y-100464386D01*
X163057318Y-100419000D01*
X162824682Y-100419000D01*
X162596515Y-100464386D01*
X162381587Y-100553412D01*
X162188157Y-100682658D01*
X162023658Y-100847157D01*
X161894412Y-101040587D01*
X161805386Y-101255515D01*
X161760000Y-101483682D01*
X160312000Y-101483682D01*
X160266614Y-101255515D01*
X160177588Y-101040587D01*
X160048342Y-100847157D01*
X159883843Y-100682658D01*
X159690413Y-100553412D01*
X159475485Y-100464386D01*
X159247318Y-100419000D01*
X159014682Y-100419000D01*
X158786515Y-100464386D01*
X158571587Y-100553412D01*
X158378157Y-100682658D01*
X158213658Y-100847157D01*
X158084412Y-101040587D01*
X157995386Y-101255515D01*
X157950000Y-101483682D01*
X157950000Y-101716318D01*
X157995386Y-101944485D01*
X158084412Y-102159413D01*
X158213658Y-102352843D01*
X158369000Y-102508185D01*
X158369001Y-104688000D01*
X155142628Y-104688000D01*
X155084855Y-104601537D01*
X154899463Y-104416145D01*
X154681465Y-104270483D01*
X154511303Y-104200000D01*
X154681465Y-104129517D01*
X154899463Y-103983855D01*
X155084855Y-103798463D01*
X155230517Y-103580465D01*
X155330850Y-103338238D01*
X155382000Y-103081092D01*
X155382000Y-102818908D01*
X155330850Y-102561762D01*
X155230517Y-102319535D01*
X155084855Y-102101537D01*
X154899463Y-101916145D01*
X154681465Y-101770483D01*
X154439238Y-101670150D01*
X154182092Y-101619000D01*
X153919908Y-101619000D01*
X153817918Y-101639287D01*
X152316284Y-100137654D01*
X152292422Y-100108578D01*
X152176392Y-100013355D01*
X152044015Y-99942598D01*
X151900378Y-99899026D01*
X151788426Y-99888000D01*
X151788423Y-99888000D01*
X151751000Y-99884314D01*
X151713577Y-99888000D01*
X140260751Y-99888000D01*
X140256374Y-99877432D01*
X140077881Y-99610298D01*
X139850702Y-99383119D01*
X139583568Y-99204626D01*
X139286745Y-99081678D01*
X138971640Y-99019000D01*
X138650360Y-99019000D01*
X138335255Y-99081678D01*
X138038432Y-99204626D01*
X137771298Y-99383119D01*
X137544119Y-99610298D01*
X137365626Y-99877432D01*
X137242678Y-100174255D01*
X137180000Y-100489360D01*
X127393700Y-100489360D01*
X127393700Y-74030000D01*
X146291157Y-74030000D01*
X146291157Y-75830000D01*
X146298513Y-75904689D01*
X146320299Y-75976508D01*
X146355678Y-76042696D01*
X146403289Y-76100711D01*
X146461304Y-76148322D01*
X146527492Y-76183701D01*
X146599311Y-76205487D01*
X146674000Y-76212843D01*
X148474000Y-76212843D01*
X148548689Y-76205487D01*
X148620508Y-76183701D01*
X148686696Y-76148322D01*
X148744711Y-76100711D01*
X148792322Y-76042696D01*
X148827701Y-75976508D01*
X148849487Y-75904689D01*
X148856843Y-75830000D01*
X148856843Y-74030000D01*
X158991157Y-74030000D01*
X158991157Y-75830000D01*
X158998513Y-75904689D01*
X159020299Y-75976508D01*
X159055678Y-76042696D01*
X159103289Y-76100711D01*
X159161304Y-76148322D01*
X159227492Y-76183701D01*
X159299311Y-76205487D01*
X159374000Y-76212843D01*
X161174000Y-76212843D01*
X161248689Y-76205487D01*
X161320508Y-76183701D01*
X161386696Y-76148322D01*
X161444711Y-76100711D01*
X161492322Y-76042696D01*
X161527701Y-75976508D01*
X161549487Y-75904689D01*
X161556843Y-75830000D01*
X161556843Y-74030000D01*
X161549487Y-73955311D01*
X161527701Y-73883492D01*
X161492322Y-73817304D01*
X161444711Y-73759289D01*
X161386696Y-73711678D01*
X161320508Y-73676299D01*
X161248689Y-73654513D01*
X161174000Y-73647157D01*
X160520034Y-73647157D01*
X160647654Y-73621772D01*
X160880781Y-73525207D01*
X161090590Y-73385018D01*
X161269018Y-73206590D01*
X161409207Y-72996781D01*
X161505772Y-72763654D01*
X161555000Y-72516167D01*
X161555000Y-72263833D01*
X161505772Y-72016346D01*
X161409207Y-71783219D01*
X161269018Y-71573410D01*
X161090590Y-71394982D01*
X160880781Y-71254793D01*
X160647654Y-71158228D01*
X160400167Y-71109000D01*
X160147833Y-71109000D01*
X159900346Y-71158228D01*
X159667219Y-71254793D01*
X159457410Y-71394982D01*
X159278982Y-71573410D01*
X159138793Y-71783219D01*
X159042228Y-72016346D01*
X158993000Y-72263833D01*
X158993000Y-72516167D01*
X159042228Y-72763654D01*
X159138793Y-72996781D01*
X159278982Y-73206590D01*
X159457410Y-73385018D01*
X159667219Y-73525207D01*
X159900346Y-73621772D01*
X160027966Y-73647157D01*
X159374000Y-73647157D01*
X159299311Y-73654513D01*
X159227492Y-73676299D01*
X159161304Y-73711678D01*
X159103289Y-73759289D01*
X159055678Y-73817304D01*
X159020299Y-73883492D01*
X158998513Y-73955311D01*
X158991157Y-74030000D01*
X148856843Y-74030000D01*
X148849487Y-73955311D01*
X148827701Y-73883492D01*
X148792322Y-73817304D01*
X148744711Y-73759289D01*
X148686696Y-73711678D01*
X148620508Y-73676299D01*
X148548689Y-73654513D01*
X148474000Y-73647157D01*
X147820034Y-73647157D01*
X147947654Y-73621772D01*
X148180781Y-73525207D01*
X148390590Y-73385018D01*
X148569018Y-73206590D01*
X148709207Y-72996781D01*
X148805772Y-72763654D01*
X148855000Y-72516167D01*
X148855000Y-72263833D01*
X148805772Y-72016346D01*
X148709207Y-71783219D01*
X148569018Y-71573410D01*
X148390590Y-71394982D01*
X148180781Y-71254793D01*
X147947654Y-71158228D01*
X147700167Y-71109000D01*
X147447833Y-71109000D01*
X147200346Y-71158228D01*
X146967219Y-71254793D01*
X146757410Y-71394982D01*
X146578982Y-71573410D01*
X146438793Y-71783219D01*
X146342228Y-72016346D01*
X146293000Y-72263833D01*
X146293000Y-72516167D01*
X146342228Y-72763654D01*
X146438793Y-72996781D01*
X146578982Y-73206590D01*
X146757410Y-73385018D01*
X146967219Y-73525207D01*
X147200346Y-73621772D01*
X147327966Y-73647157D01*
X146674000Y-73647157D01*
X146599311Y-73654513D01*
X146527492Y-73676299D01*
X146461304Y-73711678D01*
X146403289Y-73759289D01*
X146355678Y-73817304D01*
X146320299Y-73883492D01*
X146298513Y-73955311D01*
X146291157Y-74030000D01*
X127393700Y-74030000D01*
X127393700Y-45824616D01*
X146546966Y-45824616D01*
X146547215Y-45860265D01*
X146546966Y-45895981D01*
X146547503Y-45901452D01*
X146586366Y-46271206D01*
X146593537Y-46306139D01*
X146600227Y-46341211D01*
X146601816Y-46346474D01*
X146711758Y-46701637D01*
X146725583Y-46734527D01*
X146738952Y-46767616D01*
X146741533Y-46772470D01*
X146918365Y-47099515D01*
X146938320Y-47129099D01*
X146957858Y-47158956D01*
X146961332Y-47163216D01*
X147198321Y-47449686D01*
X147223605Y-47474794D01*
X147248606Y-47500324D01*
X147252842Y-47503827D01*
X147540959Y-47738810D01*
X147570645Y-47758534D01*
X147600123Y-47778717D01*
X147604958Y-47781332D01*
X147933230Y-47955877D01*
X147966221Y-47969475D01*
X147999017Y-47983531D01*
X148004269Y-47985157D01*
X148360191Y-48092616D01*
X148395137Y-48099536D01*
X148430099Y-48106967D01*
X148435564Y-48107541D01*
X148435566Y-48107541D01*
X148805582Y-48143821D01*
X148805588Y-48143821D01*
X148824667Y-48145700D01*
X159023333Y-48145700D01*
X159024710Y-48145564D01*
X159033351Y-48145504D01*
X159051133Y-48143635D01*
X159069016Y-48143635D01*
X159074483Y-48143060D01*
X159443957Y-48101617D01*
X159478827Y-48094205D01*
X159513864Y-48087268D01*
X159519115Y-48085642D01*
X159873502Y-47973224D01*
X159906261Y-47959183D01*
X159939290Y-47945570D01*
X159944126Y-47942955D01*
X160269928Y-47763843D01*
X160299341Y-47743704D01*
X160329092Y-47723937D01*
X160333327Y-47720433D01*
X160618135Y-47481451D01*
X160643084Y-47455974D01*
X160668421Y-47430813D01*
X160671895Y-47426553D01*
X160904861Y-47136802D01*
X160924389Y-47106961D01*
X160944354Y-47077361D01*
X160946934Y-47072508D01*
X161119183Y-46743026D01*
X161132549Y-46709944D01*
X161146378Y-46677046D01*
X161147967Y-46671784D01*
X161252939Y-46315118D01*
X161259620Y-46280098D01*
X161266801Y-46245115D01*
X161267337Y-46239644D01*
X161301034Y-45869384D01*
X161300785Y-45833735D01*
X161301034Y-45798019D01*
X161300497Y-45792548D01*
X161261634Y-45422794D01*
X161254466Y-45387874D01*
X161247773Y-45352789D01*
X161246184Y-45347526D01*
X161136242Y-44992362D01*
X161122422Y-44959487D01*
X161109048Y-44926384D01*
X161106467Y-44921530D01*
X160929635Y-44594485D01*
X160909692Y-44564918D01*
X160890142Y-44535043D01*
X160886668Y-44530784D01*
X160649679Y-44244314D01*
X160624378Y-44219189D01*
X160599394Y-44193676D01*
X160595164Y-44190178D01*
X160595158Y-44190172D01*
X160595151Y-44190168D01*
X160307041Y-43955190D01*
X160277373Y-43935478D01*
X160247878Y-43915283D01*
X160243042Y-43912668D01*
X159914770Y-43738123D01*
X159881753Y-43724515D01*
X159848982Y-43710469D01*
X159843731Y-43708843D01*
X159487808Y-43601383D01*
X159452827Y-43594457D01*
X159417901Y-43587033D01*
X159412436Y-43586459D01*
X159412434Y-43586459D01*
X159042418Y-43550179D01*
X159042412Y-43550179D01*
X159023333Y-43548300D01*
X148824667Y-43548300D01*
X148823290Y-43548436D01*
X148814649Y-43548496D01*
X148796867Y-43550365D01*
X148778984Y-43550365D01*
X148773517Y-43550940D01*
X148404043Y-43592383D01*
X148369173Y-43599795D01*
X148334136Y-43606732D01*
X148328885Y-43608358D01*
X147974498Y-43720776D01*
X147941739Y-43734817D01*
X147908710Y-43748430D01*
X147903874Y-43751045D01*
X147578071Y-43930157D01*
X147548625Y-43950319D01*
X147518908Y-43970063D01*
X147514678Y-43973563D01*
X147514672Y-43973567D01*
X147514667Y-43973572D01*
X147229865Y-44212549D01*
X147204916Y-44238026D01*
X147179579Y-44263187D01*
X147176105Y-44267447D01*
X146943139Y-44557198D01*
X146923611Y-44587039D01*
X146903646Y-44616639D01*
X146901065Y-44621493D01*
X146728817Y-44950974D01*
X146715461Y-44984030D01*
X146701622Y-45016953D01*
X146700033Y-45022216D01*
X146595061Y-45378881D01*
X146588385Y-45413878D01*
X146581199Y-45448885D01*
X146580663Y-45454356D01*
X146546966Y-45824616D01*
X127393700Y-45824616D01*
X127393700Y-42811700D01*
X180454301Y-42811700D01*
X180454300Y-113675802D01*
G37*
X180454300Y-113675802D02*
X180368342Y-113547157D01*
X180203843Y-113382658D01*
X180010413Y-113253412D01*
X179795485Y-113164386D01*
X179567318Y-113119000D01*
X179334682Y-113119000D01*
X179106515Y-113164386D01*
X179055102Y-113185682D01*
X175485318Y-109615898D01*
X175504727Y-109569040D01*
X176789091Y-109569040D01*
X176883930Y-109833881D01*
X177028615Y-110075131D01*
X177217586Y-110283519D01*
X177443580Y-110451037D01*
X177697913Y-110571246D01*
X177831961Y-110611904D01*
X178054000Y-110489915D01*
X178054000Y-109347000D01*
X178308000Y-109347000D01*
X178308000Y-110489915D01*
X178530039Y-110611904D01*
X178664087Y-110571246D01*
X178918420Y-110451037D01*
X179144414Y-110283519D01*
X179333385Y-110075131D01*
X179478070Y-109833881D01*
X179572909Y-109569040D01*
X179451624Y-109347000D01*
X178308000Y-109347000D01*
X178054000Y-109347000D01*
X176910376Y-109347000D01*
X176789091Y-109569040D01*
X175504727Y-109569040D01*
X175506614Y-109564485D01*
X175552000Y-109336318D01*
X175552000Y-109103682D01*
X175506614Y-108875515D01*
X175504728Y-108870960D01*
X176789091Y-108870960D01*
X176910376Y-109093000D01*
X178054000Y-109093000D01*
X178054000Y-107950085D01*
X178308000Y-107950085D01*
X178308000Y-109093000D01*
X179451624Y-109093000D01*
X179572909Y-108870960D01*
X179478070Y-108606119D01*
X179333385Y-108364869D01*
X179144414Y-108156481D01*
X178918420Y-107988963D01*
X178664087Y-107868754D01*
X178530039Y-107828096D01*
X178308000Y-107950085D01*
X178054000Y-107950085D01*
X177831961Y-107828096D01*
X177697913Y-107868754D01*
X177443580Y-107988963D01*
X177217586Y-108156481D01*
X177028615Y-108364869D01*
X176883930Y-108606119D01*
X176789091Y-108870960D01*
X175504728Y-108870960D01*
X175417588Y-108660587D01*
X175288342Y-108467157D01*
X175123843Y-108302658D01*
X174930413Y-108173412D01*
X174879000Y-108152116D01*
X174879000Y-105620420D01*
X177785102Y-102714318D01*
X177836515Y-102735614D01*
X178064682Y-102781000D01*
X178297318Y-102781000D01*
X178525485Y-102735614D01*
X178740413Y-102646588D01*
X178933843Y-102517342D01*
X179098342Y-102352843D01*
X179227588Y-102159413D01*
X179316614Y-101944485D01*
X179362000Y-101716318D01*
X179362000Y-101483682D01*
X179316614Y-101255515D01*
X179227588Y-101040587D01*
X179098342Y-100847157D01*
X178933843Y-100682658D01*
X178740413Y-100553412D01*
X178525485Y-100464386D01*
X178297318Y-100419000D01*
X178064682Y-100419000D01*
X177836515Y-100464386D01*
X177621587Y-100553412D01*
X177428157Y-100682658D01*
X177263658Y-100847157D01*
X177134412Y-101040587D01*
X177045386Y-101255515D01*
X177000000Y-101483682D01*
X177000000Y-101716318D01*
X177045386Y-101944485D01*
X177066682Y-101995898D01*
X174029430Y-105033150D01*
X174010053Y-105049052D01*
X173994151Y-105068429D01*
X173994150Y-105068430D01*
X173946571Y-105126405D01*
X173925191Y-105166405D01*
X173899400Y-105214657D01*
X173873323Y-105300623D01*
X173870352Y-105310416D01*
X173860543Y-105410000D01*
X173863001Y-105434954D01*
X173863000Y-108152116D01*
X173811587Y-108173412D01*
X173618157Y-108302658D01*
X173453658Y-108467157D01*
X173324412Y-108660587D01*
X173235386Y-108875515D01*
X173190000Y-109103682D01*
X173190000Y-109336318D01*
X173235386Y-109564485D01*
X173324412Y-109779413D01*
X173453658Y-109972843D01*
X173618157Y-110137342D01*
X173811587Y-110266588D01*
X174026515Y-110355614D01*
X174254682Y-110401000D01*
X174487318Y-110401000D01*
X174715485Y-110355614D01*
X174766898Y-110334318D01*
X178336682Y-113904102D01*
X178315386Y-113955515D01*
X178270000Y-114183682D01*
X178270000Y-114416318D01*
X178315386Y-114644485D01*
X178404412Y-114859413D01*
X178533658Y-115052843D01*
X178698157Y-115217342D01*
X178891587Y-115346588D01*
X178943000Y-115367884D01*
X178943000Y-115994579D01*
X176569430Y-118368150D01*
X176550053Y-118384052D01*
X176534151Y-118403429D01*
X176534150Y-118403430D01*
X176486571Y-118461405D01*
X176439400Y-118549657D01*
X176410352Y-118645416D01*
X176400543Y-118745000D01*
X176403001Y-118769954D01*
X176403001Y-119467157D01*
X176111000Y-119467157D01*
X176036311Y-119474513D01*
X175964492Y-119496299D01*
X175898304Y-119531678D01*
X175840289Y-119579289D01*
X175792678Y-119637304D01*
X175757299Y-119703492D01*
X175735513Y-119775311D01*
X175728157Y-119850000D01*
X175728157Y-121450000D01*
X175735513Y-121524689D01*
X175757299Y-121596508D01*
X175792678Y-121662696D01*
X175840289Y-121720711D01*
X175898304Y-121768322D01*
X175964492Y-121803701D01*
X176036311Y-121825487D01*
X176111000Y-121832843D01*
X176332609Y-121832843D01*
X176294708Y-121846397D01*
X176169486Y-121913329D01*
X176097903Y-122157298D01*
X176911000Y-122970395D01*
X177724097Y-122157298D01*
X177652514Y-121913329D01*
X177482415Y-121832843D01*
X177711000Y-121832843D01*
X177785689Y-121825487D01*
X177857508Y-121803701D01*
X177923696Y-121768322D01*
X177981711Y-121720711D01*
X178029322Y-121662696D01*
X178064701Y-121596508D01*
X178086487Y-121524689D01*
X178093843Y-121450000D01*
X178093843Y-119850000D01*
X178086487Y-119775311D01*
X178064701Y-119703492D01*
X178029322Y-119637304D01*
X177981711Y-119579289D01*
X177923696Y-119531678D01*
X177857508Y-119496299D01*
X177785689Y-119474513D01*
X177711000Y-119467157D01*
X177419000Y-119467157D01*
X177419000Y-118955420D01*
X179792571Y-116581850D01*
X179811948Y-116565948D01*
X179830624Y-116543190D01*
X179875429Y-116488596D01*
X179922600Y-116400345D01*
X179922601Y-116400342D01*
X179951649Y-116304585D01*
X179959000Y-116229947D01*
X179959000Y-116229945D01*
X179961457Y-116205001D01*
X179959000Y-116180057D01*
X179959000Y-115367884D01*
X180010413Y-115346588D01*
X180203843Y-115217342D01*
X180368342Y-115052843D01*
X180454300Y-114924198D01*
X180454300Y-126606300D01*
X127393700Y-126606300D01*
X127393700Y-124155565D01*
X151995040Y-124155565D01*
X152062020Y-124395656D01*
X152311048Y-124512756D01*
X152578135Y-124579023D01*
X152853017Y-124591910D01*
X153125133Y-124550922D01*
X153384023Y-124457636D01*
X153499980Y-124395656D01*
X153566960Y-124155565D01*
X152781000Y-123369605D01*
X151995040Y-124155565D01*
X127393700Y-124155565D01*
X127393700Y-123262017D01*
X151379090Y-123262017D01*
X151420078Y-123534133D01*
X151513364Y-123793023D01*
X151575344Y-123908980D01*
X151815435Y-123975960D01*
X152601395Y-123190000D01*
X152960605Y-123190000D01*
X153746565Y-123975960D01*
X153986656Y-123908980D01*
X154103756Y-123659952D01*
X154170023Y-123392865D01*
X154178000Y-123222714D01*
X154178000Y-123302576D01*
X154221925Y-123523401D01*
X154308087Y-123731413D01*
X154433174Y-123918620D01*
X154592380Y-124077826D01*
X154779587Y-124202913D01*
X154987599Y-124289075D01*
X155208424Y-124333000D01*
X155433576Y-124333000D01*
X155654401Y-124289075D01*
X155862413Y-124202913D01*
X156049620Y-124077826D01*
X156208826Y-123918620D01*
X156333913Y-123731413D01*
X156420075Y-123523401D01*
X156464000Y-123302576D01*
X156464000Y-123077424D01*
X156718000Y-123077424D01*
X156718000Y-123302576D01*
X156761925Y-123523401D01*
X156848087Y-123731413D01*
X156973174Y-123918620D01*
X157132380Y-124077826D01*
X157319587Y-124202913D01*
X157527599Y-124289075D01*
X157748424Y-124333000D01*
X157973576Y-124333000D01*
X158194401Y-124289075D01*
X158402413Y-124202913D01*
X158589620Y-124077826D01*
X158748826Y-123918620D01*
X158873913Y-123731413D01*
X158960075Y-123523401D01*
X159004000Y-123302576D01*
X159004000Y-123077424D01*
X158960075Y-122856599D01*
X158873913Y-122648587D01*
X158748826Y-122461380D01*
X158589620Y-122302174D01*
X158402413Y-122177087D01*
X158194401Y-122090925D01*
X157973576Y-122047000D01*
X157748424Y-122047000D01*
X157527599Y-122090925D01*
X157319587Y-122177087D01*
X157132380Y-122302174D01*
X156973174Y-122461380D01*
X156848087Y-122648587D01*
X156761925Y-122856599D01*
X156718000Y-123077424D01*
X156464000Y-123077424D01*
X156420075Y-122856599D01*
X156333913Y-122648587D01*
X156208826Y-122461380D01*
X156049620Y-122302174D01*
X155862413Y-122177087D01*
X155654401Y-122090925D01*
X155433576Y-122047000D01*
X155208424Y-122047000D01*
X154987599Y-122090925D01*
X154779587Y-122177087D01*
X154592380Y-122302174D01*
X154433174Y-122461380D01*
X154308087Y-122648587D01*
X154221925Y-122856599D01*
X154178000Y-123077424D01*
X154178000Y-123085386D01*
X154141922Y-122845867D01*
X154048636Y-122586977D01*
X153986656Y-122471020D01*
X153746565Y-122404040D01*
X152960605Y-123190000D01*
X152601395Y-123190000D01*
X151815435Y-122404040D01*
X151575344Y-122471020D01*
X151458244Y-122720048D01*
X151391977Y-122987135D01*
X151379090Y-123262017D01*
X127393700Y-123262017D01*
X127393700Y-121735000D01*
X137087928Y-121735000D01*
X137100188Y-121859482D01*
X137136498Y-121979180D01*
X137195463Y-122089494D01*
X137274815Y-122186185D01*
X137371506Y-122265537D01*
X137481820Y-122324502D01*
X137601518Y-122360812D01*
X137726000Y-122373072D01*
X138525250Y-122370000D01*
X138684000Y-122211250D01*
X138684000Y-120777000D01*
X138938000Y-120777000D01*
X138938000Y-122211250D01*
X139096750Y-122370000D01*
X139896000Y-122373072D01*
X140020482Y-122360812D01*
X140140180Y-122324502D01*
X140250494Y-122265537D01*
X140300577Y-122224435D01*
X151995040Y-122224435D01*
X152781000Y-123010395D01*
X153566960Y-122224435D01*
X153499980Y-121984344D01*
X153250952Y-121867244D01*
X152983865Y-121800977D01*
X152708983Y-121788090D01*
X152436867Y-121829078D01*
X152177977Y-121922364D01*
X152062020Y-121984344D01*
X151995040Y-122224435D01*
X140300577Y-122224435D01*
X140347185Y-122186185D01*
X140426537Y-122089494D01*
X140485502Y-121979180D01*
X140521812Y-121859482D01*
X140534072Y-121735000D01*
X140531000Y-120935750D01*
X140372250Y-120777000D01*
X138938000Y-120777000D01*
X138684000Y-120777000D01*
X137249750Y-120777000D01*
X137091000Y-120935750D01*
X137087928Y-121735000D01*
X127393700Y-121735000D01*
X127393700Y-119565000D01*
X137087928Y-119565000D01*
X137091000Y-120364250D01*
X137249750Y-120523000D01*
X138684000Y-120523000D01*
X138684000Y-119088750D01*
X138938000Y-119088750D01*
X138938000Y-120523000D01*
X140372250Y-120523000D01*
X140531000Y-120364250D01*
X140534072Y-119565000D01*
X140521812Y-119440518D01*
X140485502Y-119320820D01*
X140426537Y-119210506D01*
X140347185Y-119113815D01*
X140250494Y-119034463D01*
X140140180Y-118975498D01*
X140020482Y-118939188D01*
X139896000Y-118926928D01*
X139096750Y-118930000D01*
X138938000Y-119088750D01*
X138684000Y-119088750D01*
X138525250Y-118930000D01*
X137726000Y-118926928D01*
X137601518Y-118939188D01*
X137481820Y-118975498D01*
X137371506Y-119034463D01*
X137274815Y-119113815D01*
X137195463Y-119210506D01*
X137136498Y-119320820D01*
X137100188Y-119440518D01*
X137087928Y-119565000D01*
X127393700Y-119565000D01*
X127393700Y-100489360D01*
X137180000Y-100489360D01*
X137180000Y-100810640D01*
X137242678Y-101125745D01*
X137365626Y-101422568D01*
X137544119Y-101689702D01*
X137771298Y-101916881D01*
X138038432Y-102095374D01*
X138335255Y-102218322D01*
X138650360Y-102281000D01*
X138971640Y-102281000D01*
X139286745Y-102218322D01*
X139583568Y-102095374D01*
X139850702Y-101916881D01*
X140077881Y-101689702D01*
X140256374Y-101422568D01*
X140260751Y-101412000D01*
X151435370Y-101412000D01*
X152740287Y-102716918D01*
X152720000Y-102818908D01*
X152720000Y-103081092D01*
X152771150Y-103338238D01*
X152871483Y-103580465D01*
X153017145Y-103798463D01*
X153202537Y-103983855D01*
X153420535Y-104129517D01*
X153590697Y-104200000D01*
X153420535Y-104270483D01*
X153202537Y-104416145D01*
X153017145Y-104601537D01*
X152871483Y-104819535D01*
X152771150Y-105061762D01*
X152720000Y-105318908D01*
X152720000Y-105581092D01*
X152771150Y-105838238D01*
X152821877Y-105960703D01*
X151677436Y-107105144D01*
X151658053Y-107121051D01*
X151594572Y-107198404D01*
X151547400Y-107286657D01*
X151518352Y-107382415D01*
X151511001Y-107457052D01*
X151508544Y-107481999D01*
X151511001Y-107506943D01*
X151511002Y-114783047D01*
X151508544Y-114808001D01*
X151517475Y-114898675D01*
X151518353Y-114907586D01*
X151529860Y-114945518D01*
X151547401Y-115003344D01*
X151594572Y-115091596D01*
X151616139Y-115117875D01*
X151658054Y-115168949D01*
X151677431Y-115184851D01*
X151695765Y-115203185D01*
X151681925Y-115236599D01*
X151638000Y-115457424D01*
X151638000Y-115682576D01*
X151681925Y-115903401D01*
X151768087Y-116111413D01*
X151893174Y-116298620D01*
X152052380Y-116457826D01*
X152239587Y-116582913D01*
X152447599Y-116669075D01*
X152668424Y-116713000D01*
X152893576Y-116713000D01*
X153114401Y-116669075D01*
X153147814Y-116655235D01*
X159315765Y-122823186D01*
X159301925Y-122856599D01*
X159258000Y-123077424D01*
X159258000Y-123302576D01*
X159301925Y-123523401D01*
X159388087Y-123731413D01*
X159513174Y-123918620D01*
X159672380Y-124077826D01*
X159859587Y-124202913D01*
X160067599Y-124289075D01*
X160288424Y-124333000D01*
X160513576Y-124333000D01*
X160734401Y-124289075D01*
X160942413Y-124202913D01*
X161032525Y-124142702D01*
X176097903Y-124142702D01*
X176169486Y-124386671D01*
X176424996Y-124507571D01*
X176699184Y-124576300D01*
X176981512Y-124590217D01*
X177261130Y-124548787D01*
X177527292Y-124453603D01*
X177652514Y-124386671D01*
X177724097Y-124142702D01*
X176911000Y-123329605D01*
X176097903Y-124142702D01*
X161032525Y-124142702D01*
X161129620Y-124077826D01*
X161288826Y-123918620D01*
X161413913Y-123731413D01*
X161450658Y-123642702D01*
X165937903Y-123642702D01*
X166009486Y-123886671D01*
X166264996Y-124007571D01*
X166539184Y-124076300D01*
X166821512Y-124090217D01*
X167101130Y-124048787D01*
X167367292Y-123953603D01*
X167492514Y-123886671D01*
X167564097Y-123642702D01*
X166751000Y-122829605D01*
X165937903Y-123642702D01*
X161450658Y-123642702D01*
X161500075Y-123523401D01*
X161544000Y-123302576D01*
X161544000Y-123077424D01*
X161500075Y-122856599D01*
X161413913Y-122648587D01*
X161288826Y-122461380D01*
X161129620Y-122302174D01*
X160942413Y-122177087D01*
X160734401Y-122090925D01*
X160513576Y-122047000D01*
X160288424Y-122047000D01*
X160067599Y-122090925D01*
X160034186Y-122104765D01*
X153866235Y-115936814D01*
X153880075Y-115903401D01*
X153924000Y-115682576D01*
X153924000Y-115457424D01*
X154178000Y-115457424D01*
X154178000Y-115682576D01*
X154221925Y-115903401D01*
X154308087Y-116111413D01*
X154433174Y-116298620D01*
X154592380Y-116457826D01*
X154779587Y-116582913D01*
X154987599Y-116669075D01*
X155208424Y-116713000D01*
X155433576Y-116713000D01*
X155654401Y-116669075D01*
X155862413Y-116582913D01*
X156049620Y-116457826D01*
X156208826Y-116298620D01*
X156333913Y-116111413D01*
X156420075Y-115903401D01*
X156464000Y-115682576D01*
X156464000Y-115457424D01*
X156718000Y-115457424D01*
X156718000Y-115682576D01*
X156761925Y-115903401D01*
X156848087Y-116111413D01*
X156973174Y-116298620D01*
X157132380Y-116457826D01*
X157319587Y-116582913D01*
X157353000Y-116596753D01*
X157353001Y-118466046D01*
X157350543Y-118491000D01*
X157360352Y-118590584D01*
X157389400Y-118686343D01*
X157436571Y-118774595D01*
X157484150Y-118832570D01*
X157500053Y-118851948D01*
X157519430Y-118867850D01*
X159643150Y-120991571D01*
X159659052Y-121010948D01*
X159678429Y-121026850D01*
X159736404Y-121074429D01*
X159783576Y-121099643D01*
X159824657Y-121121601D01*
X159920415Y-121150649D01*
X159995053Y-121158000D01*
X159995055Y-121158000D01*
X160019999Y-121160457D01*
X160044943Y-121158000D01*
X165568157Y-121158000D01*
X165568157Y-121450000D01*
X165575513Y-121524689D01*
X165597299Y-121596508D01*
X165632678Y-121662696D01*
X165663004Y-121699649D01*
X165642023Y-121720630D01*
X165758296Y-121836903D01*
X165514329Y-121908486D01*
X165393429Y-122163996D01*
X165324700Y-122438184D01*
X165310783Y-122720512D01*
X165352213Y-123000130D01*
X165447397Y-123266292D01*
X165514329Y-123391514D01*
X165758298Y-123463097D01*
X166571395Y-122650000D01*
X166557253Y-122635858D01*
X166736858Y-122456253D01*
X166751000Y-122470395D01*
X166765143Y-122456253D01*
X166944748Y-122635858D01*
X166930605Y-122650000D01*
X167743702Y-123463097D01*
X167987671Y-123391514D01*
X168068584Y-123220512D01*
X175470783Y-123220512D01*
X175512213Y-123500130D01*
X175607397Y-123766292D01*
X175674329Y-123891514D01*
X175918298Y-123963097D01*
X176731395Y-123150000D01*
X177090605Y-123150000D01*
X177903702Y-123963097D01*
X178147671Y-123891514D01*
X178268571Y-123636004D01*
X178337300Y-123361816D01*
X178351217Y-123079488D01*
X178309787Y-122799870D01*
X178214603Y-122533708D01*
X178147671Y-122408486D01*
X177903702Y-122336903D01*
X177090605Y-123150000D01*
X176731395Y-123150000D01*
X175918298Y-122336903D01*
X175674329Y-122408486D01*
X175553429Y-122663996D01*
X175484700Y-122938184D01*
X175470783Y-123220512D01*
X168068584Y-123220512D01*
X168108571Y-123136004D01*
X168177300Y-122861816D01*
X168191217Y-122579488D01*
X168149787Y-122299870D01*
X168054603Y-122033708D01*
X167987671Y-121908486D01*
X167743704Y-121836903D01*
X167859977Y-121720630D01*
X167838996Y-121699649D01*
X167869322Y-121662696D01*
X167904701Y-121596508D01*
X167926487Y-121524689D01*
X167933843Y-121450000D01*
X167933843Y-119850000D01*
X167926487Y-119775311D01*
X167904701Y-119703492D01*
X167869322Y-119637304D01*
X167821711Y-119579289D01*
X167763696Y-119531678D01*
X167697508Y-119496299D01*
X167625689Y-119474513D01*
X167551000Y-119467157D01*
X165951000Y-119467157D01*
X165876311Y-119474513D01*
X165804492Y-119496299D01*
X165738304Y-119531678D01*
X165680289Y-119579289D01*
X165632678Y-119637304D01*
X165597299Y-119703492D01*
X165575513Y-119775311D01*
X165568157Y-119850000D01*
X165568157Y-120142000D01*
X160230421Y-120142000D01*
X158369000Y-118280580D01*
X158369000Y-116596753D01*
X158402413Y-116582913D01*
X158589620Y-116457826D01*
X158748826Y-116298620D01*
X158873913Y-116111413D01*
X158960075Y-115903401D01*
X159004000Y-115682576D01*
X159004000Y-115457424D01*
X159258000Y-115457424D01*
X159258000Y-115682576D01*
X159301925Y-115903401D01*
X159388087Y-116111413D01*
X159513174Y-116298620D01*
X159672380Y-116457826D01*
X159859587Y-116582913D01*
X160067599Y-116669075D01*
X160288424Y-116713000D01*
X160513576Y-116713000D01*
X160734401Y-116669075D01*
X160942413Y-116582913D01*
X161129620Y-116457826D01*
X161288826Y-116298620D01*
X161413913Y-116111413D01*
X161431066Y-116070000D01*
X165362928Y-116070000D01*
X165375188Y-116194482D01*
X165411498Y-116314180D01*
X165470463Y-116424494D01*
X165549815Y-116521185D01*
X165646506Y-116600537D01*
X165756820Y-116659502D01*
X165876518Y-116695812D01*
X166001000Y-116708072D01*
X166465250Y-116705000D01*
X166624000Y-116546250D01*
X166624000Y-115697000D01*
X166878000Y-115697000D01*
X166878000Y-116546250D01*
X167036750Y-116705000D01*
X167501000Y-116708072D01*
X167625482Y-116695812D01*
X167745180Y-116659502D01*
X167855494Y-116600537D01*
X167952185Y-116521185D01*
X168031537Y-116424494D01*
X168090502Y-116314180D01*
X168126812Y-116194482D01*
X168139072Y-116070000D01*
X168136000Y-115855750D01*
X167977250Y-115697000D01*
X166878000Y-115697000D01*
X166624000Y-115697000D01*
X165524750Y-115697000D01*
X165366000Y-115855750D01*
X165362928Y-116070000D01*
X161431066Y-116070000D01*
X161500075Y-115903401D01*
X161544000Y-115682576D01*
X161544000Y-115457424D01*
X161500075Y-115236599D01*
X161413913Y-115028587D01*
X161288826Y-114841380D01*
X161129620Y-114682174D01*
X160942413Y-114557087D01*
X160734401Y-114470925D01*
X160513576Y-114427000D01*
X160288424Y-114427000D01*
X160067599Y-114470925D01*
X159859587Y-114557087D01*
X159672380Y-114682174D01*
X159513174Y-114841380D01*
X159388087Y-115028587D01*
X159301925Y-115236599D01*
X159258000Y-115457424D01*
X159004000Y-115457424D01*
X158960075Y-115236599D01*
X158873913Y-115028587D01*
X158748826Y-114841380D01*
X158589620Y-114682174D01*
X158402413Y-114557087D01*
X158194401Y-114470925D01*
X157973576Y-114427000D01*
X157748424Y-114427000D01*
X157527599Y-114470925D01*
X157319587Y-114557087D01*
X157132380Y-114682174D01*
X156973174Y-114841380D01*
X156848087Y-115028587D01*
X156761925Y-115236599D01*
X156718000Y-115457424D01*
X156464000Y-115457424D01*
X156420075Y-115236599D01*
X156333913Y-115028587D01*
X156208826Y-114841380D01*
X156049620Y-114682174D01*
X155862413Y-114557087D01*
X155829000Y-114543247D01*
X155829000Y-113240420D01*
X158735102Y-110334318D01*
X158786515Y-110355614D01*
X159014682Y-110401000D01*
X159247318Y-110401000D01*
X159475485Y-110355614D01*
X159690413Y-110266588D01*
X159883843Y-110137342D01*
X160048342Y-109972843D01*
X160177588Y-109779413D01*
X160198884Y-109728000D01*
X161873116Y-109728000D01*
X161894412Y-109779413D01*
X162023658Y-109972843D01*
X162188157Y-110137342D01*
X162381587Y-110266588D01*
X162596515Y-110355614D01*
X162824682Y-110401000D01*
X163057318Y-110401000D01*
X163285485Y-110355614D01*
X163500413Y-110266588D01*
X163693843Y-110137342D01*
X163858342Y-109972843D01*
X163987588Y-109779413D01*
X164076614Y-109564485D01*
X164122000Y-109336318D01*
X164122000Y-109103682D01*
X164076614Y-108875515D01*
X163987588Y-108660587D01*
X163858342Y-108467157D01*
X163693843Y-108302658D01*
X163500413Y-108173412D01*
X163285485Y-108084386D01*
X163057318Y-108039000D01*
X162824682Y-108039000D01*
X162596515Y-108084386D01*
X162381587Y-108173412D01*
X162188157Y-108302658D01*
X162023658Y-108467157D01*
X161894412Y-108660587D01*
X161873116Y-108712000D01*
X160198884Y-108712000D01*
X160177588Y-108660587D01*
X160048342Y-108467157D01*
X159883843Y-108302658D01*
X159690413Y-108173412D01*
X159475485Y-108084386D01*
X159247318Y-108039000D01*
X159014682Y-108039000D01*
X158786515Y-108084386D01*
X158571587Y-108173412D01*
X158378157Y-108302658D01*
X158213658Y-108467157D01*
X158084412Y-108660587D01*
X157995386Y-108875515D01*
X157950000Y-109103682D01*
X157950000Y-109336318D01*
X157995386Y-109564485D01*
X158016682Y-109615898D01*
X154979430Y-112653150D01*
X154960053Y-112669052D01*
X154944151Y-112688429D01*
X154944150Y-112688430D01*
X154896571Y-112746405D01*
X154849400Y-112834657D01*
X154820352Y-112930416D01*
X154810543Y-113030000D01*
X154813001Y-113054954D01*
X154813000Y-114543247D01*
X154779587Y-114557087D01*
X154592380Y-114682174D01*
X154433174Y-114841380D01*
X154308087Y-115028587D01*
X154221925Y-115236599D01*
X154178000Y-115457424D01*
X153924000Y-115457424D01*
X153880075Y-115236599D01*
X153793913Y-115028587D01*
X153668826Y-114841380D01*
X153509620Y-114682174D01*
X153322413Y-114557087D01*
X153114401Y-114470925D01*
X152893576Y-114427000D01*
X152668424Y-114427000D01*
X152527001Y-114455131D01*
X152527001Y-107692419D01*
X152718157Y-107501263D01*
X152718157Y-108900000D01*
X152725513Y-108974689D01*
X152747299Y-109046508D01*
X152782678Y-109112696D01*
X152830289Y-109170711D01*
X152888304Y-109218322D01*
X152954492Y-109253701D01*
X153026311Y-109275487D01*
X153101000Y-109282843D01*
X155001000Y-109282843D01*
X155075689Y-109275487D01*
X155147508Y-109253701D01*
X155213696Y-109218322D01*
X155271711Y-109170711D01*
X155319322Y-109112696D01*
X155354701Y-109046508D01*
X155376487Y-108974689D01*
X155383843Y-108900000D01*
X155383843Y-107000000D01*
X155376487Y-106925311D01*
X155354701Y-106853492D01*
X155319322Y-106787304D01*
X155271711Y-106729289D01*
X155213696Y-106681678D01*
X155147508Y-106646299D01*
X155075689Y-106624513D01*
X155001000Y-106617157D01*
X154699963Y-106617157D01*
X154899463Y-106483855D01*
X155084855Y-106298463D01*
X155142628Y-106212000D01*
X159180577Y-106212000D01*
X159218000Y-106215686D01*
X159255423Y-106212000D01*
X165822000Y-106212000D01*
X165822001Y-108351814D01*
X165706658Y-108467157D01*
X165577412Y-108660587D01*
X165488386Y-108875515D01*
X165443000Y-109103682D01*
X165443000Y-109336318D01*
X165488386Y-109564485D01*
X165577412Y-109779413D01*
X165706658Y-109972843D01*
X165871157Y-110137342D01*
X166064587Y-110266588D01*
X166279515Y-110355614D01*
X166507682Y-110401000D01*
X166740318Y-110401000D01*
X166968485Y-110355614D01*
X167183413Y-110266588D01*
X167376843Y-110137342D01*
X167541342Y-109972843D01*
X167670588Y-109779413D01*
X167759614Y-109564485D01*
X167805000Y-109336318D01*
X167805000Y-109103682D01*
X167759614Y-108875515D01*
X167670588Y-108660587D01*
X167541342Y-108467157D01*
X167376843Y-108302658D01*
X167346000Y-108282049D01*
X167346000Y-106212000D01*
X167618370Y-106212000D01*
X169672000Y-108265631D01*
X169672000Y-108311815D01*
X169516658Y-108467157D01*
X169414606Y-108619888D01*
X169388717Y-108489733D01*
X169331276Y-108351058D01*
X169247884Y-108226253D01*
X169141747Y-108120116D01*
X169016942Y-108036724D01*
X168878267Y-107979283D01*
X168731050Y-107950000D01*
X168580950Y-107950000D01*
X168433733Y-107979283D01*
X168295058Y-108036724D01*
X168170253Y-108120116D01*
X168064116Y-108226253D01*
X167980724Y-108351058D01*
X167923283Y-108489733D01*
X167894000Y-108636950D01*
X167894000Y-108787050D01*
X167923283Y-108934267D01*
X167980724Y-109072942D01*
X168064116Y-109197747D01*
X168148001Y-109281632D01*
X168148000Y-112057580D01*
X167705667Y-112499913D01*
X167626975Y-112404025D01*
X167492825Y-112293932D01*
X167339775Y-112212125D01*
X167173706Y-112161748D01*
X167044273Y-112149000D01*
X166457727Y-112149000D01*
X166328294Y-112161748D01*
X166162225Y-112212125D01*
X166009175Y-112293932D01*
X165875025Y-112404025D01*
X165764932Y-112538175D01*
X165683125Y-112691225D01*
X165632748Y-112857294D01*
X165615738Y-113030000D01*
X165632748Y-113202706D01*
X165683125Y-113368775D01*
X165764932Y-113521825D01*
X165875025Y-113655975D01*
X165886022Y-113665000D01*
X165875025Y-113674025D01*
X165764932Y-113808175D01*
X165683125Y-113961225D01*
X165632748Y-114127294D01*
X165615738Y-114300000D01*
X165632748Y-114472706D01*
X165652093Y-114536477D01*
X165646506Y-114539463D01*
X165549815Y-114618815D01*
X165470463Y-114715506D01*
X165411498Y-114825820D01*
X165375188Y-114945518D01*
X165362928Y-115070000D01*
X165366000Y-115284250D01*
X165524750Y-115443000D01*
X166624000Y-115443000D01*
X166624000Y-115423000D01*
X166878000Y-115423000D01*
X166878000Y-115443000D01*
X167977250Y-115443000D01*
X168136000Y-115284250D01*
X168139072Y-115070000D01*
X168126812Y-114945518D01*
X168090502Y-114825820D01*
X168080977Y-114808000D01*
X170763116Y-114808000D01*
X170784412Y-114859413D01*
X170913658Y-115052843D01*
X171078157Y-115217342D01*
X171271587Y-115346588D01*
X171486515Y-115435614D01*
X171714682Y-115481000D01*
X171947318Y-115481000D01*
X172175485Y-115435614D01*
X172390413Y-115346588D01*
X172583843Y-115217342D01*
X172748342Y-115052843D01*
X172877588Y-114859413D01*
X172966614Y-114644485D01*
X173012000Y-114416318D01*
X173012000Y-114183682D01*
X172966614Y-113955515D01*
X172877588Y-113740587D01*
X172748342Y-113547157D01*
X172583843Y-113382658D01*
X172390413Y-113253412D01*
X172175485Y-113164386D01*
X171947318Y-113119000D01*
X171714682Y-113119000D01*
X171486515Y-113164386D01*
X171271587Y-113253412D01*
X171078157Y-113382658D01*
X170913658Y-113547157D01*
X170784412Y-113740587D01*
X170763116Y-113792000D01*
X167723794Y-113792000D01*
X167626975Y-113674025D01*
X167615978Y-113665000D01*
X167626975Y-113655975D01*
X167723794Y-113538000D01*
X167869056Y-113538000D01*
X167894000Y-113540457D01*
X167918944Y-113538000D01*
X167918947Y-113538000D01*
X167993585Y-113530649D01*
X168089343Y-113501601D01*
X168177595Y-113454429D01*
X168254948Y-113390948D01*
X168270855Y-113371565D01*
X168997565Y-112644855D01*
X169016948Y-112628948D01*
X169080429Y-112551595D01*
X169127601Y-112463343D01*
X169156649Y-112367585D01*
X169164000Y-112292947D01*
X169164000Y-112292944D01*
X169166457Y-112268000D01*
X169164000Y-112243056D01*
X169164000Y-109281631D01*
X169247884Y-109197747D01*
X169253000Y-109190090D01*
X169253000Y-109336318D01*
X169298386Y-109564485D01*
X169387412Y-109779413D01*
X169516658Y-109972843D01*
X169681157Y-110137342D01*
X169874587Y-110266588D01*
X170089515Y-110355614D01*
X170317682Y-110401000D01*
X170550318Y-110401000D01*
X170778485Y-110355614D01*
X170993413Y-110266588D01*
X171186843Y-110137342D01*
X171351342Y-109972843D01*
X171480588Y-109779413D01*
X171569614Y-109564485D01*
X171615000Y-109336318D01*
X171615000Y-109103682D01*
X171569614Y-108875515D01*
X171480588Y-108660587D01*
X171351342Y-108467157D01*
X171196000Y-108311815D01*
X171196000Y-107987423D01*
X171199686Y-107950000D01*
X171196000Y-107912574D01*
X171184974Y-107800622D01*
X171141402Y-107656985D01*
X171070646Y-107524609D01*
X171070645Y-107524607D01*
X170999279Y-107437648D01*
X170975422Y-107408578D01*
X170946353Y-107384722D01*
X168499284Y-104937654D01*
X168475422Y-104908578D01*
X168359392Y-104813355D01*
X168227015Y-104742598D01*
X168083378Y-104699026D01*
X167971426Y-104688000D01*
X167971423Y-104688000D01*
X167934000Y-104684314D01*
X167896577Y-104688000D01*
X166621425Y-104688000D01*
X166584000Y-104684314D01*
X166546574Y-104688000D01*
X159893000Y-104688000D01*
X159893000Y-102508185D01*
X160048342Y-102352843D01*
X160177588Y-102159413D01*
X160266614Y-101944485D01*
X160312000Y-101716318D01*
X160312000Y-101483682D01*
X161760000Y-101483682D01*
X161760000Y-101716318D01*
X161805386Y-101944485D01*
X161894412Y-102159413D01*
X162023658Y-102352843D01*
X162188157Y-102517342D01*
X162381587Y-102646588D01*
X162596515Y-102735614D01*
X162824682Y-102781000D01*
X163057318Y-102781000D01*
X163285485Y-102735614D01*
X163500413Y-102646588D01*
X163693843Y-102517342D01*
X163858342Y-102352843D01*
X163987588Y-102159413D01*
X164076614Y-101944485D01*
X164122000Y-101716318D01*
X164122000Y-101483682D01*
X165443000Y-101483682D01*
X165443000Y-101716318D01*
X165488386Y-101944485D01*
X165577412Y-102159413D01*
X165706658Y-102352843D01*
X165871157Y-102517342D01*
X166064587Y-102646588D01*
X166279515Y-102735614D01*
X166507682Y-102781000D01*
X166740318Y-102781000D01*
X166968485Y-102735614D01*
X167183413Y-102646588D01*
X167376843Y-102517342D01*
X167541342Y-102352843D01*
X167670588Y-102159413D01*
X167759614Y-101944485D01*
X167805000Y-101716318D01*
X167805000Y-101483682D01*
X169253000Y-101483682D01*
X169253000Y-101716318D01*
X169298386Y-101944485D01*
X169387412Y-102159413D01*
X169516658Y-102352843D01*
X169681157Y-102517342D01*
X169874587Y-102646588D01*
X170089515Y-102735614D01*
X170317682Y-102781000D01*
X170550318Y-102781000D01*
X170778485Y-102735614D01*
X170993413Y-102646588D01*
X171186843Y-102517342D01*
X171351342Y-102352843D01*
X171480588Y-102159413D01*
X171569614Y-101944485D01*
X171615000Y-101716318D01*
X171615000Y-101483682D01*
X173190000Y-101483682D01*
X173190000Y-101716318D01*
X173235386Y-101944485D01*
X173324412Y-102159413D01*
X173453658Y-102352843D01*
X173618157Y-102517342D01*
X173811587Y-102646588D01*
X174026515Y-102735614D01*
X174254682Y-102781000D01*
X174487318Y-102781000D01*
X174715485Y-102735614D01*
X174930413Y-102646588D01*
X175123843Y-102517342D01*
X175288342Y-102352843D01*
X175417588Y-102159413D01*
X175506614Y-101944485D01*
X175552000Y-101716318D01*
X175552000Y-101483682D01*
X175506614Y-101255515D01*
X175417588Y-101040587D01*
X175288342Y-100847157D01*
X175123843Y-100682658D01*
X174930413Y-100553412D01*
X174715485Y-100464386D01*
X174487318Y-100419000D01*
X174254682Y-100419000D01*
X174026515Y-100464386D01*
X173811587Y-100553412D01*
X173618157Y-100682658D01*
X173453658Y-100847157D01*
X173324412Y-101040587D01*
X173235386Y-101255515D01*
X173190000Y-101483682D01*
X171615000Y-101483682D01*
X171569614Y-101255515D01*
X171480588Y-101040587D01*
X171351342Y-100847157D01*
X171186843Y-100682658D01*
X170993413Y-100553412D01*
X170778485Y-100464386D01*
X170550318Y-100419000D01*
X170317682Y-100419000D01*
X170089515Y-100464386D01*
X169874587Y-100553412D01*
X169681157Y-100682658D01*
X169516658Y-100847157D01*
X169387412Y-101040587D01*
X169298386Y-101255515D01*
X169253000Y-101483682D01*
X167805000Y-101483682D01*
X167759614Y-101255515D01*
X167670588Y-101040587D01*
X167541342Y-100847157D01*
X167376843Y-100682658D01*
X167183413Y-100553412D01*
X166968485Y-100464386D01*
X166740318Y-100419000D01*
X166507682Y-100419000D01*
X166279515Y-100464386D01*
X166064587Y-100553412D01*
X165871157Y-100682658D01*
X165706658Y-100847157D01*
X165577412Y-101040587D01*
X165488386Y-101255515D01*
X165443000Y-101483682D01*
X164122000Y-101483682D01*
X164076614Y-101255515D01*
X163987588Y-101040587D01*
X163858342Y-100847157D01*
X163693843Y-100682658D01*
X163500413Y-100553412D01*
X163285485Y-100464386D01*
X163057318Y-100419000D01*
X162824682Y-100419000D01*
X162596515Y-100464386D01*
X162381587Y-100553412D01*
X162188157Y-100682658D01*
X162023658Y-100847157D01*
X161894412Y-101040587D01*
X161805386Y-101255515D01*
X161760000Y-101483682D01*
X160312000Y-101483682D01*
X160266614Y-101255515D01*
X160177588Y-101040587D01*
X160048342Y-100847157D01*
X159883843Y-100682658D01*
X159690413Y-100553412D01*
X159475485Y-100464386D01*
X159247318Y-100419000D01*
X159014682Y-100419000D01*
X158786515Y-100464386D01*
X158571587Y-100553412D01*
X158378157Y-100682658D01*
X158213658Y-100847157D01*
X158084412Y-101040587D01*
X157995386Y-101255515D01*
X157950000Y-101483682D01*
X157950000Y-101716318D01*
X157995386Y-101944485D01*
X158084412Y-102159413D01*
X158213658Y-102352843D01*
X158369000Y-102508185D01*
X158369001Y-104688000D01*
X155142628Y-104688000D01*
X155084855Y-104601537D01*
X154899463Y-104416145D01*
X154681465Y-104270483D01*
X154511303Y-104200000D01*
X154681465Y-104129517D01*
X154899463Y-103983855D01*
X155084855Y-103798463D01*
X155230517Y-103580465D01*
X155330850Y-103338238D01*
X155382000Y-103081092D01*
X155382000Y-102818908D01*
X155330850Y-102561762D01*
X155230517Y-102319535D01*
X155084855Y-102101537D01*
X154899463Y-101916145D01*
X154681465Y-101770483D01*
X154439238Y-101670150D01*
X154182092Y-101619000D01*
X153919908Y-101619000D01*
X153817918Y-101639287D01*
X152316284Y-100137654D01*
X152292422Y-100108578D01*
X152176392Y-100013355D01*
X152044015Y-99942598D01*
X151900378Y-99899026D01*
X151788426Y-99888000D01*
X151788423Y-99888000D01*
X151751000Y-99884314D01*
X151713577Y-99888000D01*
X140260751Y-99888000D01*
X140256374Y-99877432D01*
X140077881Y-99610298D01*
X139850702Y-99383119D01*
X139583568Y-99204626D01*
X139286745Y-99081678D01*
X138971640Y-99019000D01*
X138650360Y-99019000D01*
X138335255Y-99081678D01*
X138038432Y-99204626D01*
X137771298Y-99383119D01*
X137544119Y-99610298D01*
X137365626Y-99877432D01*
X137242678Y-100174255D01*
X137180000Y-100489360D01*
X127393700Y-100489360D01*
X127393700Y-74030000D01*
X146291157Y-74030000D01*
X146291157Y-75830000D01*
X146298513Y-75904689D01*
X146320299Y-75976508D01*
X146355678Y-76042696D01*
X146403289Y-76100711D01*
X146461304Y-76148322D01*
X146527492Y-76183701D01*
X146599311Y-76205487D01*
X146674000Y-76212843D01*
X148474000Y-76212843D01*
X148548689Y-76205487D01*
X148620508Y-76183701D01*
X148686696Y-76148322D01*
X148744711Y-76100711D01*
X148792322Y-76042696D01*
X148827701Y-75976508D01*
X148849487Y-75904689D01*
X148856843Y-75830000D01*
X148856843Y-74030000D01*
X158991157Y-74030000D01*
X158991157Y-75830000D01*
X158998513Y-75904689D01*
X159020299Y-75976508D01*
X159055678Y-76042696D01*
X159103289Y-76100711D01*
X159161304Y-76148322D01*
X159227492Y-76183701D01*
X159299311Y-76205487D01*
X159374000Y-76212843D01*
X161174000Y-76212843D01*
X161248689Y-76205487D01*
X161320508Y-76183701D01*
X161386696Y-76148322D01*
X161444711Y-76100711D01*
X161492322Y-76042696D01*
X161527701Y-75976508D01*
X161549487Y-75904689D01*
X161556843Y-75830000D01*
X161556843Y-74030000D01*
X161549487Y-73955311D01*
X161527701Y-73883492D01*
X161492322Y-73817304D01*
X161444711Y-73759289D01*
X161386696Y-73711678D01*
X161320508Y-73676299D01*
X161248689Y-73654513D01*
X161174000Y-73647157D01*
X160520034Y-73647157D01*
X160647654Y-73621772D01*
X160880781Y-73525207D01*
X161090590Y-73385018D01*
X161269018Y-73206590D01*
X161409207Y-72996781D01*
X161505772Y-72763654D01*
X161555000Y-72516167D01*
X161555000Y-72263833D01*
X161505772Y-72016346D01*
X161409207Y-71783219D01*
X161269018Y-71573410D01*
X161090590Y-71394982D01*
X160880781Y-71254793D01*
X160647654Y-71158228D01*
X160400167Y-71109000D01*
X160147833Y-71109000D01*
X159900346Y-71158228D01*
X159667219Y-71254793D01*
X159457410Y-71394982D01*
X159278982Y-71573410D01*
X159138793Y-71783219D01*
X159042228Y-72016346D01*
X158993000Y-72263833D01*
X158993000Y-72516167D01*
X159042228Y-72763654D01*
X159138793Y-72996781D01*
X159278982Y-73206590D01*
X159457410Y-73385018D01*
X159667219Y-73525207D01*
X159900346Y-73621772D01*
X160027966Y-73647157D01*
X159374000Y-73647157D01*
X159299311Y-73654513D01*
X159227492Y-73676299D01*
X159161304Y-73711678D01*
X159103289Y-73759289D01*
X159055678Y-73817304D01*
X159020299Y-73883492D01*
X158998513Y-73955311D01*
X158991157Y-74030000D01*
X148856843Y-74030000D01*
X148849487Y-73955311D01*
X148827701Y-73883492D01*
X148792322Y-73817304D01*
X148744711Y-73759289D01*
X148686696Y-73711678D01*
X148620508Y-73676299D01*
X148548689Y-73654513D01*
X148474000Y-73647157D01*
X147820034Y-73647157D01*
X147947654Y-73621772D01*
X148180781Y-73525207D01*
X148390590Y-73385018D01*
X148569018Y-73206590D01*
X148709207Y-72996781D01*
X148805772Y-72763654D01*
X148855000Y-72516167D01*
X148855000Y-72263833D01*
X148805772Y-72016346D01*
X148709207Y-71783219D01*
X148569018Y-71573410D01*
X148390590Y-71394982D01*
X148180781Y-71254793D01*
X147947654Y-71158228D01*
X147700167Y-71109000D01*
X147447833Y-71109000D01*
X147200346Y-71158228D01*
X146967219Y-71254793D01*
X146757410Y-71394982D01*
X146578982Y-71573410D01*
X146438793Y-71783219D01*
X146342228Y-72016346D01*
X146293000Y-72263833D01*
X146293000Y-72516167D01*
X146342228Y-72763654D01*
X146438793Y-72996781D01*
X146578982Y-73206590D01*
X146757410Y-73385018D01*
X146967219Y-73525207D01*
X147200346Y-73621772D01*
X147327966Y-73647157D01*
X146674000Y-73647157D01*
X146599311Y-73654513D01*
X146527492Y-73676299D01*
X146461304Y-73711678D01*
X146403289Y-73759289D01*
X146355678Y-73817304D01*
X146320299Y-73883492D01*
X146298513Y-73955311D01*
X146291157Y-74030000D01*
X127393700Y-74030000D01*
X127393700Y-45824616D01*
X146546966Y-45824616D01*
X146547215Y-45860265D01*
X146546966Y-45895981D01*
X146547503Y-45901452D01*
X146586366Y-46271206D01*
X146593537Y-46306139D01*
X146600227Y-46341211D01*
X146601816Y-46346474D01*
X146711758Y-46701637D01*
X146725583Y-46734527D01*
X146738952Y-46767616D01*
X146741533Y-46772470D01*
X146918365Y-47099515D01*
X146938320Y-47129099D01*
X146957858Y-47158956D01*
X146961332Y-47163216D01*
X147198321Y-47449686D01*
X147223605Y-47474794D01*
X147248606Y-47500324D01*
X147252842Y-47503827D01*
X147540959Y-47738810D01*
X147570645Y-47758534D01*
X147600123Y-47778717D01*
X147604958Y-47781332D01*
X147933230Y-47955877D01*
X147966221Y-47969475D01*
X147999017Y-47983531D01*
X148004269Y-47985157D01*
X148360191Y-48092616D01*
X148395137Y-48099536D01*
X148430099Y-48106967D01*
X148435564Y-48107541D01*
X148435566Y-48107541D01*
X148805582Y-48143821D01*
X148805588Y-48143821D01*
X148824667Y-48145700D01*
X159023333Y-48145700D01*
X159024710Y-48145564D01*
X159033351Y-48145504D01*
X159051133Y-48143635D01*
X159069016Y-48143635D01*
X159074483Y-48143060D01*
X159443957Y-48101617D01*
X159478827Y-48094205D01*
X159513864Y-48087268D01*
X159519115Y-48085642D01*
X159873502Y-47973224D01*
X159906261Y-47959183D01*
X159939290Y-47945570D01*
X159944126Y-47942955D01*
X160269928Y-47763843D01*
X160299341Y-47743704D01*
X160329092Y-47723937D01*
X160333327Y-47720433D01*
X160618135Y-47481451D01*
X160643084Y-47455974D01*
X160668421Y-47430813D01*
X160671895Y-47426553D01*
X160904861Y-47136802D01*
X160924389Y-47106961D01*
X160944354Y-47077361D01*
X160946934Y-47072508D01*
X161119183Y-46743026D01*
X161132549Y-46709944D01*
X161146378Y-46677046D01*
X161147967Y-46671784D01*
X161252939Y-46315118D01*
X161259620Y-46280098D01*
X161266801Y-46245115D01*
X161267337Y-46239644D01*
X161301034Y-45869384D01*
X161300785Y-45833735D01*
X161301034Y-45798019D01*
X161300497Y-45792548D01*
X161261634Y-45422794D01*
X161254466Y-45387874D01*
X161247773Y-45352789D01*
X161246184Y-45347526D01*
X161136242Y-44992362D01*
X161122422Y-44959487D01*
X161109048Y-44926384D01*
X161106467Y-44921530D01*
X160929635Y-44594485D01*
X160909692Y-44564918D01*
X160890142Y-44535043D01*
X160886668Y-44530784D01*
X160649679Y-44244314D01*
X160624378Y-44219189D01*
X160599394Y-44193676D01*
X160595164Y-44190178D01*
X160595158Y-44190172D01*
X160595151Y-44190168D01*
X160307041Y-43955190D01*
X160277373Y-43935478D01*
X160247878Y-43915283D01*
X160243042Y-43912668D01*
X159914770Y-43738123D01*
X159881753Y-43724515D01*
X159848982Y-43710469D01*
X159843731Y-43708843D01*
X159487808Y-43601383D01*
X159452827Y-43594457D01*
X159417901Y-43587033D01*
X159412436Y-43586459D01*
X159412434Y-43586459D01*
X159042418Y-43550179D01*
X159042412Y-43550179D01*
X159023333Y-43548300D01*
X148824667Y-43548300D01*
X148823290Y-43548436D01*
X148814649Y-43548496D01*
X148796867Y-43550365D01*
X148778984Y-43550365D01*
X148773517Y-43550940D01*
X148404043Y-43592383D01*
X148369173Y-43599795D01*
X148334136Y-43606732D01*
X148328885Y-43608358D01*
X147974498Y-43720776D01*
X147941739Y-43734817D01*
X147908710Y-43748430D01*
X147903874Y-43751045D01*
X147578071Y-43930157D01*
X147548625Y-43950319D01*
X147518908Y-43970063D01*
X147514678Y-43973563D01*
X147514672Y-43973567D01*
X147514667Y-43973572D01*
X147229865Y-44212549D01*
X147204916Y-44238026D01*
X147179579Y-44263187D01*
X147176105Y-44267447D01*
X146943139Y-44557198D01*
X146923611Y-44587039D01*
X146903646Y-44616639D01*
X146901065Y-44621493D01*
X146728817Y-44950974D01*
X146715461Y-44984030D01*
X146701622Y-45016953D01*
X146700033Y-45022216D01*
X146595061Y-45378881D01*
X146588385Y-45413878D01*
X146581199Y-45448885D01*
X146580663Y-45454356D01*
X146546966Y-45824616D01*
X127393700Y-45824616D01*
X127393700Y-42811700D01*
X180454301Y-42811700D01*
X180454300Y-113675802D01*
%TD*%
M02*
